<svg width="1715" height="734" viewBox="0 0 1715 734" fill="none" xmlns="http://www.w3.org/2000/svg">
<rect x="23" y="39" width="336" height="656" rx="6" fill="#D9D9D9" stroke="#A5A5A5" stroke-width="4" stroke-linecap="round"/>
<rect x="199" y="119" width="144" height="48" rx="3" fill="#CDF4D3" stroke="#757575" stroke-width="4" stroke-linecap="round"/>
<path d="M216.762 149.17C215.868 149.17 215.099 148.981 214.455 148.602C213.815 148.22 213.323 147.689 212.978 147.011C212.637 146.333 212.467 145.553 212.467 144.67C212.467 143.777 212.639 142.992 212.984 142.318C213.332 141.64 213.826 141.112 214.467 140.733C215.107 140.35 215.868 140.159 216.751 140.159C217.512 140.159 218.179 140.297 218.751 140.574C219.323 140.85 219.775 141.239 220.109 141.739C220.442 142.239 220.626 142.826 220.66 143.5H218.376C218.311 143.064 218.141 142.714 217.864 142.449C217.592 142.18 217.234 142.045 216.79 142.045C216.415 142.045 216.088 142.148 215.807 142.352C215.531 142.553 215.315 142.847 215.16 143.233C215.004 143.619 214.927 144.087 214.927 144.636C214.927 145.193 215.002 145.667 215.154 146.057C215.309 146.447 215.527 146.744 215.807 146.949C216.088 147.153 216.415 147.256 216.79 147.256C217.067 147.256 217.315 147.199 217.535 147.085C217.758 146.972 217.942 146.807 218.086 146.591C218.234 146.371 218.33 146.108 218.376 145.801H220.66C220.622 146.468 220.44 147.055 220.114 147.562C219.792 148.066 219.347 148.46 218.779 148.744C218.211 149.028 217.538 149.17 216.762 149.17ZM225.977 149.17C225.094 149.17 224.331 148.983 223.687 148.608C223.047 148.229 222.552 147.703 222.204 147.028C221.855 146.35 221.681 145.564 221.681 144.67C221.681 143.769 221.855 142.981 222.204 142.307C222.552 141.629 223.047 141.102 223.687 140.727C224.331 140.348 225.094 140.159 225.977 140.159C226.859 140.159 227.621 140.348 228.261 140.727C228.905 141.102 229.401 141.629 229.749 142.307C230.098 142.981 230.272 143.769 230.272 144.67C230.272 145.564 230.098 146.35 229.749 147.028C229.401 147.703 228.905 148.229 228.261 148.608C227.621 148.983 226.859 149.17 225.977 149.17ZM225.988 147.295C226.389 147.295 226.725 147.182 226.994 146.955C227.263 146.723 227.465 146.409 227.602 146.011C227.742 145.614 227.812 145.161 227.812 144.653C227.812 144.146 227.742 143.693 227.602 143.295C227.465 142.898 227.263 142.583 226.994 142.352C226.725 142.121 226.389 142.006 225.988 142.006C225.583 142.006 225.242 142.121 224.965 142.352C224.693 142.583 224.486 142.898 224.346 143.295C224.21 143.693 224.141 144.146 224.141 144.653C224.141 145.161 224.21 145.614 224.346 146.011C224.486 146.409 224.693 146.723 224.965 146.955C225.242 147.182 225.583 147.295 225.988 147.295ZM231.221 146.528H233.568C233.579 146.816 233.708 147.044 233.954 147.21C234.2 147.377 234.518 147.46 234.909 147.46C235.302 147.46 235.634 147.369 235.903 147.188C236.172 147.002 236.306 146.737 236.306 146.392C236.306 146.18 236.253 145.996 236.147 145.841C236.041 145.682 235.893 145.557 235.704 145.466C235.515 145.375 235.295 145.33 235.045 145.33H233.789V143.744H235.045C235.42 143.744 235.708 143.657 235.909 143.483C236.113 143.309 236.215 143.091 236.215 142.83C236.215 142.534 236.109 142.297 235.897 142.119C235.689 141.937 235.407 141.847 235.051 141.847C234.691 141.847 234.392 141.928 234.153 142.091C233.918 142.25 233.797 142.458 233.789 142.716H231.454C231.462 142.193 231.619 141.741 231.926 141.358C232.236 140.975 232.653 140.68 233.176 140.472C233.702 140.263 234.291 140.159 234.943 140.159C235.655 140.159 236.268 140.259 236.784 140.46C237.302 140.657 237.7 140.939 237.977 141.307C238.257 141.674 238.397 142.112 238.397 142.619C238.397 143.081 238.246 143.468 237.943 143.778C237.64 144.089 237.215 144.311 236.67 144.443V144.534C237.03 144.557 237.356 144.653 237.647 144.824C237.939 144.994 238.172 145.229 238.346 145.528C238.52 145.824 238.607 146.174 238.607 146.58C238.607 147.121 238.448 147.585 238.13 147.972C237.816 148.358 237.38 148.655 236.823 148.864C236.27 149.068 235.636 149.17 234.92 149.17C234.223 149.17 233.598 149.07 233.045 148.869C232.496 148.665 232.058 148.366 231.732 147.972C231.41 147.578 231.24 147.097 231.221 146.528ZM239.234 151.557V147.08H239.904C240.098 146.958 240.253 146.765 240.37 146.5C240.492 146.235 240.59 145.922 240.666 145.562C240.745 145.203 240.806 144.814 240.848 144.398C240.893 143.977 240.933 143.553 240.967 143.125L241.194 140.273H247.887V147.08H249.24V151.557H246.933V149H241.598V151.557H239.234ZM242.314 147.08H245.603V142.136H243.251L243.16 143.125C243.096 144.057 243.003 144.848 242.882 145.5C242.76 146.148 242.571 146.674 242.314 147.08ZM252.963 149.165C252.406 149.165 251.91 149.068 251.474 148.875C251.039 148.678 250.694 148.388 250.44 148.006C250.19 147.619 250.065 147.138 250.065 146.562C250.065 146.078 250.154 145.67 250.332 145.341C250.51 145.011 250.753 144.746 251.059 144.545C251.366 144.345 251.715 144.193 252.105 144.091C252.499 143.989 252.912 143.917 253.343 143.875C253.851 143.822 254.26 143.773 254.571 143.727C254.881 143.678 255.107 143.606 255.247 143.511C255.387 143.417 255.457 143.277 255.457 143.091V143.057C255.457 142.697 255.343 142.419 255.116 142.222C254.893 142.025 254.575 141.926 254.162 141.926C253.726 141.926 253.379 142.023 253.122 142.216C252.864 142.405 252.694 142.644 252.611 142.932L250.372 142.75C250.486 142.22 250.709 141.761 251.042 141.375C251.376 140.985 251.806 140.686 252.332 140.477C252.862 140.265 253.476 140.159 254.173 140.159C254.658 140.159 255.122 140.216 255.565 140.33C256.012 140.443 256.408 140.619 256.753 140.858C257.101 141.097 257.376 141.403 257.576 141.778C257.777 142.15 257.878 142.595 257.878 143.114V149H255.582V147.79H255.514C255.374 148.062 255.186 148.303 254.951 148.511C254.717 148.716 254.434 148.877 254.105 148.994C253.775 149.108 253.395 149.165 252.963 149.165ZM253.656 147.494C254.012 147.494 254.326 147.424 254.599 147.284C254.872 147.14 255.086 146.947 255.241 146.705C255.397 146.462 255.474 146.187 255.474 145.881V144.955C255.398 145.004 255.294 145.049 255.162 145.091C255.033 145.129 254.887 145.165 254.724 145.199C254.561 145.229 254.398 145.258 254.236 145.284C254.073 145.307 253.925 145.328 253.792 145.347C253.508 145.388 253.26 145.455 253.048 145.545C252.836 145.636 252.671 145.759 252.554 145.915C252.436 146.066 252.378 146.256 252.378 146.483C252.378 146.812 252.497 147.064 252.736 147.239C252.978 147.409 253.285 147.494 253.656 147.494ZM258.703 142.176V140.273H266.612V142.176H263.8V149H261.493V142.176H258.703ZM269.42 142.955H272.028C273.184 142.955 274.085 143.231 274.733 143.784C275.381 144.333 275.705 145.068 275.705 145.989C275.705 146.587 275.559 147.114 275.267 147.568C274.975 148.019 274.555 148.371 274.006 148.625C273.456 148.875 272.797 149 272.028 149H267.903V140.273H270.216V147.097H272.028C272.434 147.097 272.767 146.994 273.028 146.79C273.29 146.585 273.422 146.324 273.426 146.006C273.422 145.669 273.29 145.394 273.028 145.182C272.767 144.966 272.434 144.858 272.028 144.858H269.42V142.955ZM286.735 143.67V145.574H282.178V143.67H286.735ZM282.973 140.273V149H280.661V140.273H282.973ZM288.252 140.273V149H285.956V140.273H288.252ZM293.897 149.17C293.014 149.17 292.251 148.983 291.607 148.608C290.967 148.229 290.472 147.703 290.124 147.028C289.776 146.35 289.601 145.564 289.601 144.67C289.601 143.769 289.776 142.981 290.124 142.307C290.472 141.629 290.967 141.102 291.607 140.727C292.251 140.348 293.014 140.159 293.897 140.159C294.779 140.159 295.541 140.348 296.181 140.727C296.825 141.102 297.321 141.629 297.669 142.307C298.018 142.981 298.192 143.769 298.192 144.67C298.192 145.564 298.018 146.35 297.669 147.028C297.321 147.703 296.825 148.229 296.181 148.608C295.541 148.983 294.779 149.17 293.897 149.17ZM293.908 147.295C294.31 147.295 294.645 147.182 294.914 146.955C295.183 146.723 295.385 146.409 295.522 146.011C295.662 145.614 295.732 145.161 295.732 144.653C295.732 144.146 295.662 143.693 295.522 143.295C295.385 142.898 295.183 142.583 294.914 142.352C294.645 142.121 294.31 142.006 293.908 142.006C293.503 142.006 293.162 142.121 292.885 142.352C292.613 142.583 292.406 142.898 292.266 143.295C292.13 143.693 292.061 144.146 292.061 144.653C292.061 145.161 292.13 145.614 292.266 146.011C292.406 146.409 292.613 146.723 292.885 146.955C293.162 147.182 293.503 147.295 293.908 147.295ZM299.59 149V140.273H303.312C304.387 140.273 305.238 140.477 305.863 140.886C306.488 141.295 306.8 141.877 306.8 142.631C306.8 143.104 306.624 143.498 306.272 143.812C305.92 144.127 305.431 144.339 304.806 144.449C305.329 144.487 305.774 144.606 306.141 144.807C306.512 145.004 306.795 145.259 306.988 145.574C307.185 145.888 307.283 146.237 307.283 146.619C307.283 147.116 307.151 147.542 306.885 147.898C306.624 148.254 306.24 148.527 305.732 148.716C305.228 148.905 304.613 149 303.885 149H299.59ZM301.846 147.188H303.885C304.223 147.188 304.486 147.108 304.675 146.949C304.868 146.786 304.965 146.564 304.965 146.284C304.965 145.973 304.868 145.729 304.675 145.551C304.486 145.373 304.223 145.284 303.885 145.284H301.846V147.188ZM301.846 143.864H303.363C303.605 143.864 303.812 143.83 303.982 143.761C304.156 143.689 304.289 143.587 304.38 143.455C304.475 143.322 304.522 143.165 304.522 142.983C304.522 142.714 304.414 142.504 304.198 142.352C303.982 142.201 303.687 142.125 303.312 142.125H301.846V143.864ZM310.127 152.273C309.82 152.273 309.532 152.248 309.263 152.199C308.998 152.153 308.779 152.095 308.604 152.023L309.15 150.216C309.434 150.303 309.69 150.35 309.917 150.358C310.148 150.366 310.347 150.313 310.513 150.199C310.684 150.085 310.822 149.892 310.928 149.619L311.07 149.25L307.94 140.273H310.485L312.292 146.682H312.383L314.207 140.273H316.769L313.377 149.943C313.214 150.413 312.993 150.822 312.712 151.17C312.436 151.523 312.085 151.794 311.661 151.983C311.237 152.176 310.726 152.273 310.127 152.273ZM322.656 143.722V145.642H317.923V143.722H322.656ZM319.792 140.273V149H317.377V140.273H319.792ZM325.269 149.17C324.406 149.17 323.659 148.977 323.031 148.591C322.402 148.205 321.917 147.67 321.576 146.989C321.239 146.307 321.07 145.525 321.07 144.642C321.07 143.759 321.239 142.981 321.576 142.307C321.917 141.633 322.402 141.106 323.031 140.727C323.659 140.348 324.406 140.159 325.269 140.159C326.137 140.159 326.883 140.348 327.508 140.727C328.137 141.106 328.62 141.633 328.957 142.307C329.298 142.981 329.468 143.759 329.468 144.642C329.468 145.525 329.298 146.307 328.957 146.989C328.62 147.67 328.137 148.205 327.508 148.591C326.883 148.977 326.137 149.17 325.269 149.17ZM325.269 147.216C325.72 147.216 326.084 147.106 326.36 146.886C326.637 146.663 326.839 146.358 326.968 145.972C327.097 145.581 327.161 145.138 327.161 144.642C327.161 144.146 327.097 143.706 326.968 143.324C326.839 142.937 326.637 142.634 326.36 142.415C326.084 142.195 325.72 142.085 325.269 142.085C324.822 142.085 324.459 142.195 324.178 142.415C323.898 142.631 323.692 142.93 323.559 143.312C323.43 143.695 323.366 144.138 323.366 144.642C323.366 145.142 323.43 145.585 323.559 145.972C323.692 146.358 323.898 146.663 324.178 146.886C324.459 147.106 324.822 147.216 325.269 147.216Z" fill="black" fill-opacity="0.8"/>
<path d="M46.24 69.5403L43.08 69.0603V67.0603H53.96V69.0603L50.52 69.5403V80.3003H64.6V69.5403L61.36 69.0603V67.0603H72.08V69.0603L68.92 69.5403V94.4203L72.08 94.8203V96.7803H61.32V94.8203L64.6 94.4203V82.7803H50.52V94.4203L54 94.8203V96.7803H43V94.8203L46.24 94.4203V69.5403ZM75.045 85.6203C75.045 83.2203 75.5383 81.1403 76.525 79.3803C77.5117 77.6203 78.805 76.2869 80.405 75.3803C82.0317 74.4469 83.765 73.9803 85.605 73.9803C88.965 73.9803 91.485 75.0469 93.165 77.1803C94.8717 79.3136 95.725 82.1136 95.725 85.5803C95.725 88.0069 95.2317 90.1003 94.245 91.8603C93.2583 93.6203 91.9517 94.9536 90.325 95.8603C88.725 96.7669 87.005 97.2203 85.165 97.2203C81.805 97.2203 79.2717 96.1536 77.565 94.0203C75.885 91.8869 75.045 89.0869 75.045 85.6203ZM85.405 94.9403C87.245 94.9403 88.6583 94.1803 89.645 92.6603C90.6317 91.1403 91.125 88.8869 91.125 85.9003C91.125 82.9403 90.6717 80.5936 89.765 78.8603C88.8583 77.1269 87.405 76.2603 85.405 76.2603C83.565 76.2603 82.1383 77.0203 81.125 78.5403C80.1383 80.0603 79.645 82.3136 79.645 85.3003C79.645 88.2603 80.1117 90.6069 81.045 92.3403C81.9783 94.0736 83.4317 94.9403 85.405 94.9403ZM120.141 74.5803L120.381 83.0203H117.741L116.661 76.9803L111.341 76.7803V94.4203L116.781 94.8203V96.7803H101.781V94.8203L107.181 94.4203V76.7803L101.781 76.9803L100.701 83.0203H98.0609L98.3009 74.5803H120.141ZM122.219 85.8203C122.219 83.6069 122.646 81.6069 123.499 79.8203C124.379 78.0336 125.659 76.6203 127.339 75.5803C129.046 74.5136 131.086 73.9803 133.459 73.9803C134.606 73.9803 135.592 74.0869 136.419 74.3003C137.246 74.5136 138.232 74.8069 139.379 75.1803L139.219 81.3403H136.619L135.739 77.2603C135.579 76.5136 134.566 76.1403 132.699 76.1403C130.832 76.1403 129.352 76.9003 128.259 78.4203C127.192 79.9136 126.659 82.0469 126.659 84.8203C126.659 87.9669 127.259 90.3669 128.459 92.0203C129.686 93.6469 131.272 94.4603 133.219 94.4603C134.339 94.4603 135.392 94.2869 136.379 93.9403C137.392 93.5936 138.259 93.1803 138.979 92.7003L139.739 94.3003C139.019 95.0469 137.952 95.7269 136.539 96.3403C135.152 96.9269 133.739 97.2203 132.299 97.2203C130.112 97.2203 128.259 96.7269 126.739 95.7403C125.246 94.7536 124.112 93.4069 123.339 91.7003C122.592 89.9669 122.219 88.0069 122.219 85.8203ZM142.327 90.7803C142.327 88.2736 143.58 86.4336 146.087 85.2603C148.594 84.0603 151.767 83.4203 155.607 83.3403V82.2203C155.607 80.9669 155.474 79.9803 155.207 79.2603C154.94 78.5403 154.474 78.0203 153.807 77.7003C153.167 77.3536 152.247 77.1803 151.047 77.1803C149.687 77.1803 148.46 77.3803 147.367 77.7803C146.3 78.1536 145.234 78.6203 144.167 79.1803L143.167 77.1003C143.514 76.8069 144.154 76.4203 145.087 75.9403C146.02 75.4603 147.1 75.0336 148.327 74.6603C149.554 74.2869 150.78 74.1003 152.007 74.1003C153.9 74.1003 155.394 74.3669 156.487 74.9003C157.607 75.4069 158.407 76.2336 158.887 77.3803C159.367 78.5269 159.607 80.0603 159.607 81.9803V94.8203H161.967V96.5803C161.434 96.7136 160.754 96.8469 159.927 96.9803C159.127 97.1136 158.42 97.1803 157.807 97.1803C157.06 97.1803 156.554 97.0603 156.287 96.8203C156.02 96.6069 155.887 96.1136 155.887 95.3403V94.0203C155.087 94.8203 154.1 95.5536 152.927 96.2203C151.78 96.8869 150.474 97.2203 149.007 97.2203C147.087 97.2203 145.487 96.6736 144.207 95.5803C142.954 94.4603 142.327 92.8603 142.327 90.7803ZM150.727 94.5003C151.42 94.5003 152.22 94.2869 153.127 93.8603C154.034 93.4336 154.86 92.9269 155.607 92.3403V85.4603C152.7 85.4603 150.5 85.9136 149.007 86.8203C147.54 87.7003 146.807 88.8603 146.807 90.3003C146.807 91.7403 147.154 92.8069 147.847 93.5003C148.567 94.1669 149.527 94.5003 150.727 94.5003ZM187.909 74.5803V76.5403L185.149 77.1003V94.4203L188.029 94.8203V96.7803H178.029V94.8203L181.029 94.4203V76.8603H171.069V94.4203L174.029 94.8203V96.7803H164.069V94.8203L166.949 94.4203V77.1003L164.069 76.5403V74.5803H187.909ZM214.958 74.5803V76.5403L212.198 77.1003V94.4203L215.078 94.8203V96.7803H205.078V94.8203L208.078 94.4203V76.8603H198.118V94.4203L201.078 94.8203V96.7803H191.118V94.8203L193.998 94.4203V77.1003L191.118 76.5403V74.5803H214.958Z" fill="#1E1E1E"/>
<rect x="41" y="199" width="302" height="64" rx="6" fill="#C2E5FF" stroke="#3DADFF" stroke-width="4" stroke-linecap="round"/>
<rect x="55" y="207" width="54" height="48" rx="3" fill="#F24822" stroke="#BD2915" stroke-width="4" stroke-linecap="round"/>
<path d="M89.0408 222.545V240H86.6204L77.7482 227.199H77.5863V240H74.9528V222.545H77.3903L86.271 235.364H86.4329V222.545H89.0408Z" fill="white"/>
<path d="M126.17 237.341C125.39 237.341 124.693 237.206 124.08 236.937C123.47 236.668 122.987 236.295 122.631 235.818C122.278 235.337 122.089 234.78 122.062 234.148H123.847C123.869 234.492 123.985 234.791 124.193 235.045C124.405 235.295 124.682 235.488 125.023 235.625C125.364 235.761 125.742 235.829 126.159 235.829C126.617 235.829 127.023 235.75 127.375 235.591C127.731 235.432 128.009 235.21 128.21 234.926C128.411 234.638 128.511 234.307 128.511 233.932C128.511 233.541 128.411 233.199 128.21 232.903C128.013 232.604 127.723 232.369 127.341 232.199C126.962 232.028 126.504 231.943 125.966 231.943H124.983V230.511H125.966C126.398 230.511 126.777 230.434 127.102 230.278C127.432 230.123 127.689 229.907 127.875 229.631C128.061 229.35 128.153 229.023 128.153 228.648C128.153 228.288 128.072 227.975 127.909 227.71C127.75 227.441 127.523 227.231 127.227 227.079C126.936 226.928 126.591 226.852 126.193 226.852C125.814 226.852 125.46 226.922 125.131 227.062C124.805 227.199 124.54 227.396 124.335 227.653C124.131 227.907 124.021 228.212 124.006 228.568H122.307C122.326 227.939 122.511 227.386 122.864 226.909C123.22 226.432 123.689 226.059 124.273 225.79C124.856 225.521 125.504 225.386 126.216 225.386C126.962 225.386 127.606 225.532 128.148 225.824C128.693 226.112 129.114 226.496 129.409 226.977C129.708 227.458 129.856 227.985 129.852 228.557C129.856 229.208 129.674 229.761 129.307 230.216C128.943 230.67 128.458 230.975 127.852 231.131V231.221C128.625 231.339 129.223 231.646 129.648 232.142C130.076 232.638 130.288 233.254 130.284 233.988C130.288 234.629 130.11 235.202 129.75 235.71C129.394 236.218 128.907 236.617 128.29 236.909C127.672 237.197 126.966 237.341 126.17 237.341ZM134.818 237.375C134.265 237.375 133.765 237.273 133.318 237.068C132.871 236.86 132.517 236.559 132.256 236.165C131.998 235.771 131.869 235.288 131.869 234.716C131.869 234.223 131.964 233.818 132.154 233.5C132.343 233.182 132.599 232.93 132.921 232.744C133.243 232.559 133.602 232.418 134 232.324C134.398 232.229 134.803 232.157 135.216 232.108C135.739 232.047 136.163 231.998 136.489 231.96C136.815 231.918 137.051 231.852 137.199 231.761C137.347 231.67 137.421 231.523 137.421 231.318V231.278C137.421 230.782 137.28 230.398 137 230.125C136.724 229.852 136.311 229.716 135.762 229.716C135.19 229.716 134.739 229.843 134.409 230.096C134.083 230.346 133.858 230.625 133.733 230.932L132.137 230.568C132.326 230.038 132.602 229.61 132.966 229.284C133.333 228.954 133.756 228.716 134.233 228.568C134.71 228.416 135.212 228.341 135.739 228.341C136.087 228.341 136.457 228.382 136.847 228.466C137.241 228.545 137.608 228.693 137.949 228.909C138.294 229.125 138.576 229.434 138.796 229.835C139.015 230.233 139.125 230.75 139.125 231.386V237.182H137.466V235.988H137.398C137.288 236.208 137.123 236.424 136.904 236.636C136.684 236.848 136.402 237.024 136.057 237.165C135.712 237.305 135.299 237.375 134.818 237.375ZM135.188 236.011C135.657 236.011 136.059 235.918 136.392 235.733C136.729 235.547 136.985 235.305 137.159 235.006C137.337 234.702 137.426 234.379 137.426 234.034V232.909C137.366 232.97 137.248 233.026 137.074 233.079C136.904 233.129 136.708 233.172 136.489 233.21C136.269 233.244 136.055 233.276 135.847 233.307C135.638 233.333 135.464 233.356 135.324 233.375C134.994 233.416 134.693 233.487 134.421 233.585C134.152 233.684 133.936 233.826 133.773 234.011C133.614 234.193 133.534 234.435 133.534 234.738C133.534 235.159 133.69 235.477 134 235.693C134.311 235.905 134.707 236.011 135.188 236.011ZM146.11 235.079L148.928 228.454H150.394L146.74 237.182H145.479L141.899 228.454H143.348L146.11 235.079ZM142.877 228.454V237.182H141.212V228.454H142.877ZM149.388 237.182V228.454H151.041V237.182H149.388ZM156.891 237.358C156.031 237.358 155.291 237.174 154.669 236.807C154.052 236.435 153.575 235.915 153.238 235.244C152.904 234.57 152.738 233.78 152.738 232.875C152.738 231.981 152.904 231.193 153.238 230.511C153.575 229.829 154.044 229.297 154.647 228.915C155.253 228.532 155.961 228.341 156.772 228.341C157.264 228.341 157.741 228.422 158.204 228.585C158.666 228.748 159.08 229.004 159.448 229.352C159.815 229.701 160.105 230.153 160.317 230.71C160.529 231.263 160.635 231.935 160.635 232.727V233.329H153.698V232.057H158.971C158.971 231.61 158.88 231.214 158.698 230.869C158.516 230.521 158.26 230.246 157.931 230.045C157.605 229.845 157.222 229.744 156.783 229.744C156.306 229.744 155.889 229.862 155.533 230.096C155.181 230.327 154.908 230.631 154.715 231.006C154.526 231.377 154.431 231.78 154.431 232.216V233.21C154.431 233.793 154.533 234.29 154.738 234.699C154.946 235.108 155.236 235.42 155.607 235.636C155.978 235.848 156.412 235.954 156.908 235.954C157.23 235.954 157.524 235.909 157.789 235.818C158.054 235.723 158.283 235.583 158.476 235.398C158.669 235.212 158.817 234.983 158.919 234.71L160.527 235C160.399 235.473 160.168 235.888 159.834 236.244C159.505 236.596 159.09 236.871 158.59 237.068C158.094 237.261 157.527 237.358 156.891 237.358ZM161.574 229.92V228.454H168.938V229.92H166.091V237.182H164.432V229.92H161.574ZM170.559 237.182V228.454H172.258V232.113H173.076L175.957 228.454H178.059L174.678 232.699L178.099 237.182H175.991L173.36 233.693H172.258V237.182H170.559ZM181.782 237.375C181.229 237.375 180.729 237.273 180.282 237.068C179.835 236.86 179.481 236.559 179.22 236.165C178.962 235.771 178.833 235.288 178.833 234.716C178.833 234.223 178.928 233.818 179.117 233.5C179.307 233.182 179.562 232.93 179.884 232.744C180.206 232.559 180.566 232.418 180.964 232.324C181.362 232.229 181.767 232.157 182.18 232.108C182.703 232.047 183.127 231.998 183.453 231.96C183.778 231.918 184.015 231.852 184.163 231.761C184.31 231.67 184.384 231.523 184.384 231.318V231.278C184.384 230.782 184.244 230.398 183.964 230.125C183.687 229.852 183.274 229.716 182.725 229.716C182.153 229.716 181.703 229.843 181.373 230.096C181.047 230.346 180.822 230.625 180.697 230.932L179.1 230.568C179.29 230.038 179.566 229.61 179.93 229.284C180.297 228.954 180.72 228.716 181.197 228.568C181.674 228.416 182.176 228.341 182.703 228.341C183.051 228.341 183.42 228.382 183.81 228.466C184.204 228.545 184.572 228.693 184.913 228.909C185.257 229.125 185.54 229.434 185.759 229.835C185.979 230.233 186.089 230.75 186.089 231.386V237.182H184.43V235.988H184.362C184.252 236.208 184.087 236.424 183.867 236.636C183.648 236.848 183.365 237.024 183.021 237.165C182.676 237.305 182.263 237.375 181.782 237.375ZM182.151 236.011C182.621 236.011 183.023 235.918 183.356 235.733C183.693 235.547 183.949 235.305 184.123 235.006C184.301 234.702 184.39 234.379 184.39 234.034V232.909C184.329 232.97 184.212 233.026 184.038 233.079C183.867 233.129 183.672 233.172 183.453 233.21C183.233 233.244 183.019 233.276 182.81 233.307C182.602 233.333 182.428 233.356 182.288 233.375C181.958 233.416 181.657 233.487 181.384 233.585C181.115 233.684 180.899 233.826 180.737 234.011C180.578 234.193 180.498 234.435 180.498 234.738C180.498 235.159 180.653 235.477 180.964 235.693C181.274 235.905 181.67 236.011 182.151 236.011ZM196.626 225.545V237.182H194.865V227.307H194.797L192.012 229.125V227.443L194.916 225.545H196.626Z" fill="#1E1E1E"/>
<rect x="41" y="287" width="302" height="64" rx="6" fill="#C2E5FF" stroke="#3DADFF" stroke-width="4" stroke-linecap="round"/>
<rect x="55" y="295" width="54" height="48" rx="3" fill="#F24822" stroke="#BD2915" stroke-width="4" stroke-linecap="round"/>
<path d="M89.0408 310.545V328H86.6204L77.7482 315.199H77.5863V328H74.9528V310.545H77.3903L86.271 323.364H86.4329V310.545H89.0408Z" fill="white"/>
<path d="M126.17 325.341C125.39 325.341 124.693 325.206 124.08 324.937C123.47 324.668 122.987 324.295 122.631 323.818C122.278 323.337 122.089 322.78 122.062 322.148H123.847C123.869 322.492 123.985 322.791 124.193 323.045C124.405 323.295 124.682 323.488 125.023 323.625C125.364 323.761 125.742 323.829 126.159 323.829C126.617 323.829 127.023 323.75 127.375 323.591C127.731 323.432 128.009 323.21 128.21 322.926C128.411 322.638 128.511 322.307 128.511 321.932C128.511 321.541 128.411 321.199 128.21 320.903C128.013 320.604 127.723 320.369 127.341 320.199C126.962 320.028 126.504 319.943 125.966 319.943H124.983V318.511H125.966C126.398 318.511 126.777 318.434 127.102 318.278C127.432 318.123 127.689 317.907 127.875 317.631C128.061 317.35 128.153 317.023 128.153 316.648C128.153 316.288 128.072 315.975 127.909 315.71C127.75 315.441 127.523 315.231 127.227 315.079C126.936 314.928 126.591 314.852 126.193 314.852C125.814 314.852 125.46 314.922 125.131 315.062C124.805 315.199 124.54 315.396 124.335 315.653C124.131 315.907 124.021 316.212 124.006 316.568H122.307C122.326 315.939 122.511 315.386 122.864 314.909C123.22 314.432 123.689 314.059 124.273 313.79C124.856 313.521 125.504 313.386 126.216 313.386C126.962 313.386 127.606 313.532 128.148 313.824C128.693 314.112 129.114 314.496 129.409 314.977C129.708 315.458 129.856 315.985 129.852 316.557C129.856 317.208 129.674 317.761 129.307 318.216C128.943 318.67 128.458 318.975 127.852 319.131V319.221C128.625 319.339 129.223 319.646 129.648 320.142C130.076 320.638 130.288 321.254 130.284 321.988C130.288 322.629 130.11 323.202 129.75 323.71C129.394 324.218 128.907 324.617 128.29 324.909C127.672 325.197 126.966 325.341 126.17 325.341ZM134.818 325.375C134.265 325.375 133.765 325.273 133.318 325.068C132.871 324.86 132.517 324.559 132.256 324.165C131.998 323.771 131.869 323.288 131.869 322.716C131.869 322.223 131.964 321.818 132.154 321.5C132.343 321.182 132.599 320.93 132.921 320.744C133.243 320.559 133.602 320.418 134 320.324C134.398 320.229 134.803 320.157 135.216 320.108C135.739 320.047 136.163 319.998 136.489 319.96C136.815 319.918 137.051 319.852 137.199 319.761C137.347 319.67 137.421 319.523 137.421 319.318V319.278C137.421 318.782 137.28 318.398 137 318.125C136.724 317.852 136.311 317.716 135.762 317.716C135.19 317.716 134.739 317.843 134.409 318.096C134.083 318.346 133.858 318.625 133.733 318.932L132.137 318.568C132.326 318.038 132.602 317.61 132.966 317.284C133.333 316.954 133.756 316.716 134.233 316.568C134.71 316.416 135.212 316.341 135.739 316.341C136.087 316.341 136.457 316.382 136.847 316.466C137.241 316.545 137.608 316.693 137.949 316.909C138.294 317.125 138.576 317.434 138.796 317.835C139.015 318.233 139.125 318.75 139.125 319.386V325.182H137.466V323.988H137.398C137.288 324.208 137.123 324.424 136.904 324.636C136.684 324.848 136.402 325.024 136.057 325.165C135.712 325.305 135.299 325.375 134.818 325.375ZM135.188 324.011C135.657 324.011 136.059 323.918 136.392 323.733C136.729 323.547 136.985 323.305 137.159 323.006C137.337 322.702 137.426 322.379 137.426 322.034V320.909C137.366 320.97 137.248 321.026 137.074 321.079C136.904 321.129 136.708 321.172 136.489 321.21C136.269 321.244 136.055 321.276 135.847 321.307C135.638 321.333 135.464 321.356 135.324 321.375C134.994 321.416 134.693 321.487 134.421 321.585C134.152 321.684 133.936 321.826 133.773 322.011C133.614 322.193 133.534 322.435 133.534 322.738C133.534 323.159 133.69 323.477 134 323.693C134.311 323.905 134.707 324.011 135.188 324.011ZM146.11 323.079L148.928 316.454H150.394L146.74 325.182H145.479L141.899 316.454H143.348L146.11 323.079ZM142.877 316.454V325.182H141.212V316.454H142.877ZM149.388 325.182V316.454H151.041V325.182H149.388ZM156.891 325.358C156.031 325.358 155.291 325.174 154.669 324.807C154.052 324.435 153.575 323.915 153.238 323.244C152.904 322.57 152.738 321.78 152.738 320.875C152.738 319.981 152.904 319.193 153.238 318.511C153.575 317.829 154.044 317.297 154.647 316.915C155.253 316.532 155.961 316.341 156.772 316.341C157.264 316.341 157.741 316.422 158.204 316.585C158.666 316.748 159.08 317.004 159.448 317.352C159.815 317.701 160.105 318.153 160.317 318.71C160.529 319.263 160.635 319.935 160.635 320.727V321.329H153.698V320.057H158.971C158.971 319.61 158.88 319.214 158.698 318.869C158.516 318.521 158.26 318.246 157.931 318.045C157.605 317.845 157.222 317.744 156.783 317.744C156.306 317.744 155.889 317.862 155.533 318.096C155.181 318.327 154.908 318.631 154.715 319.006C154.526 319.377 154.431 319.78 154.431 320.216V321.21C154.431 321.793 154.533 322.29 154.738 322.699C154.946 323.108 155.236 323.42 155.607 323.636C155.978 323.848 156.412 323.954 156.908 323.954C157.23 323.954 157.524 323.909 157.789 323.818C158.054 323.723 158.283 323.583 158.476 323.398C158.669 323.212 158.817 322.983 158.919 322.71L160.527 323C160.399 323.473 160.168 323.888 159.834 324.244C159.505 324.596 159.09 324.871 158.59 325.068C158.094 325.261 157.527 325.358 156.891 325.358ZM161.574 317.92V316.454H168.938V317.92H166.091V325.182H164.432V317.92H161.574ZM170.559 325.182V316.454H172.258V320.113H173.076L175.957 316.454H178.059L174.678 320.699L178.099 325.182H175.991L173.36 321.693H172.258V325.182H170.559ZM181.782 325.375C181.229 325.375 180.729 325.273 180.282 325.068C179.835 324.86 179.481 324.559 179.22 324.165C178.962 323.771 178.833 323.288 178.833 322.716C178.833 322.223 178.928 321.818 179.117 321.5C179.307 321.182 179.562 320.93 179.884 320.744C180.206 320.559 180.566 320.418 180.964 320.324C181.362 320.229 181.767 320.157 182.18 320.108C182.703 320.047 183.127 319.998 183.453 319.96C183.778 319.918 184.015 319.852 184.163 319.761C184.31 319.67 184.384 319.523 184.384 319.318V319.278C184.384 318.782 184.244 318.398 183.964 318.125C183.687 317.852 183.274 317.716 182.725 317.716C182.153 317.716 181.703 317.843 181.373 318.096C181.047 318.346 180.822 318.625 180.697 318.932L179.1 318.568C179.29 318.038 179.566 317.61 179.93 317.284C180.297 316.954 180.72 316.716 181.197 316.568C181.674 316.416 182.176 316.341 182.703 316.341C183.051 316.341 183.42 316.382 183.81 316.466C184.204 316.545 184.572 316.693 184.913 316.909C185.257 317.125 185.54 317.434 185.759 317.835C185.979 318.233 186.089 318.75 186.089 319.386V325.182H184.43V323.988H184.362C184.252 324.208 184.087 324.424 183.867 324.636C183.648 324.848 183.365 325.024 183.021 325.165C182.676 325.305 182.263 325.375 181.782 325.375ZM182.151 324.011C182.621 324.011 183.023 323.918 183.356 323.733C183.693 323.547 183.949 323.305 184.123 323.006C184.301 322.702 184.39 322.379 184.39 322.034V320.909C184.329 320.97 184.212 321.026 184.038 321.079C183.867 321.129 183.672 321.172 183.453 321.21C183.233 321.244 183.019 321.276 182.81 321.307C182.602 321.333 182.428 321.356 182.288 321.375C181.958 321.416 181.657 321.487 181.384 321.585C181.115 321.684 180.899 321.826 180.737 322.011C180.578 322.193 180.498 322.435 180.498 322.738C180.498 323.159 180.653 323.477 180.964 323.693C181.274 323.905 181.67 324.011 182.151 324.011ZM192.211 325.182V323.909L196.149 319.829C196.569 319.386 196.916 318.998 197.189 318.665C197.465 318.327 197.672 318.007 197.808 317.704C197.944 317.401 198.012 317.079 198.012 316.738C198.012 316.352 197.922 316.019 197.74 315.738C197.558 315.454 197.31 315.237 196.995 315.085C196.681 314.93 196.327 314.852 195.933 314.852C195.516 314.852 195.153 314.937 194.842 315.108C194.531 315.278 194.293 315.519 194.126 315.829C193.959 316.14 193.876 316.504 193.876 316.92H192.2C192.2 316.212 192.363 315.593 192.689 315.062C193.014 314.532 193.461 314.121 194.03 313.829C194.598 313.534 195.244 313.386 195.967 313.386C196.698 313.386 197.342 313.532 197.899 313.824C198.459 314.112 198.897 314.506 199.211 315.006C199.526 315.502 199.683 316.062 199.683 316.687C199.683 317.119 199.601 317.541 199.439 317.954C199.28 318.367 199.001 318.827 198.603 319.335C198.206 319.839 197.653 320.451 196.944 321.17L194.632 323.591V323.676H199.87V325.182H192.211Z" fill="#1E1E1E"/>
<rect x="41" y="375" width="302" height="64" rx="6" fill="#C2E5FF" stroke="#3DADFF" stroke-width="4" stroke-linecap="round"/>
<rect x="55" y="383" width="54" height="48" rx="3" fill="#F24822" stroke="#BD2915" stroke-width="4" stroke-linecap="round"/>
<path d="M89.0408 398.545V416H86.6204L77.7482 403.199H77.5863V416H74.9528V398.545H77.3903L86.271 411.364H86.4329V398.545H89.0408Z" fill="white"/>
<path d="M126.17 413.341C125.39 413.341 124.693 413.206 124.08 412.937C123.47 412.668 122.987 412.295 122.631 411.818C122.278 411.337 122.089 410.78 122.062 410.148H123.847C123.869 410.492 123.985 410.791 124.193 411.045C124.405 411.295 124.682 411.488 125.023 411.625C125.364 411.761 125.742 411.829 126.159 411.829C126.617 411.829 127.023 411.75 127.375 411.591C127.731 411.432 128.009 411.21 128.21 410.926C128.411 410.638 128.511 410.307 128.511 409.932C128.511 409.541 128.411 409.199 128.21 408.903C128.013 408.604 127.723 408.369 127.341 408.199C126.962 408.028 126.504 407.943 125.966 407.943H124.983V406.511H125.966C126.398 406.511 126.777 406.434 127.102 406.278C127.432 406.123 127.689 405.907 127.875 405.631C128.061 405.35 128.153 405.023 128.153 404.648C128.153 404.288 128.072 403.975 127.909 403.71C127.75 403.441 127.523 403.231 127.227 403.079C126.936 402.928 126.591 402.852 126.193 402.852C125.814 402.852 125.46 402.922 125.131 403.062C124.805 403.199 124.54 403.396 124.335 403.653C124.131 403.907 124.021 404.212 124.006 404.568H122.307C122.326 403.939 122.511 403.386 122.864 402.909C123.22 402.432 123.689 402.059 124.273 401.79C124.856 401.521 125.504 401.386 126.216 401.386C126.962 401.386 127.606 401.532 128.148 401.824C128.693 402.112 129.114 402.496 129.409 402.977C129.708 403.458 129.856 403.985 129.852 404.557C129.856 405.208 129.674 405.761 129.307 406.216C128.943 406.67 128.458 406.975 127.852 407.131V407.221C128.625 407.339 129.223 407.646 129.648 408.142C130.076 408.638 130.288 409.254 130.284 409.988C130.288 410.629 130.11 411.202 129.75 411.71C129.394 412.218 128.907 412.617 128.29 412.909C127.672 413.197 126.966 413.341 126.17 413.341ZM134.818 413.375C134.265 413.375 133.765 413.273 133.318 413.068C132.871 412.86 132.517 412.559 132.256 412.165C131.998 411.771 131.869 411.288 131.869 410.716C131.869 410.223 131.964 409.818 132.154 409.5C132.343 409.182 132.599 408.93 132.921 408.744C133.243 408.559 133.602 408.418 134 408.324C134.398 408.229 134.803 408.157 135.216 408.108C135.739 408.047 136.163 407.998 136.489 407.96C136.815 407.918 137.051 407.852 137.199 407.761C137.347 407.67 137.421 407.523 137.421 407.318V407.278C137.421 406.782 137.28 406.398 137 406.125C136.724 405.852 136.311 405.716 135.762 405.716C135.19 405.716 134.739 405.843 134.409 406.096C134.083 406.346 133.858 406.625 133.733 406.932L132.137 406.568C132.326 406.038 132.602 405.61 132.966 405.284C133.333 404.954 133.756 404.716 134.233 404.568C134.71 404.416 135.212 404.341 135.739 404.341C136.087 404.341 136.457 404.382 136.847 404.466C137.241 404.545 137.608 404.693 137.949 404.909C138.294 405.125 138.576 405.434 138.796 405.835C139.015 406.233 139.125 406.75 139.125 407.386V413.182H137.466V411.988H137.398C137.288 412.208 137.123 412.424 136.904 412.636C136.684 412.848 136.402 413.024 136.057 413.165C135.712 413.305 135.299 413.375 134.818 413.375ZM135.188 412.011C135.657 412.011 136.059 411.918 136.392 411.733C136.729 411.547 136.985 411.305 137.159 411.006C137.337 410.702 137.426 410.379 137.426 410.034V408.909C137.366 408.97 137.248 409.026 137.074 409.079C136.904 409.129 136.708 409.172 136.489 409.21C136.269 409.244 136.055 409.276 135.847 409.307C135.638 409.333 135.464 409.356 135.324 409.375C134.994 409.416 134.693 409.487 134.421 409.585C134.152 409.684 133.936 409.826 133.773 410.011C133.614 410.193 133.534 410.435 133.534 410.738C133.534 411.159 133.69 411.477 134 411.693C134.311 411.905 134.707 412.011 135.188 412.011ZM146.11 411.079L148.928 404.454H150.394L146.74 413.182H145.479L141.899 404.454H143.348L146.11 411.079ZM142.877 404.454V413.182H141.212V404.454H142.877ZM149.388 413.182V404.454H151.041V413.182H149.388ZM156.891 413.358C156.031 413.358 155.291 413.174 154.669 412.807C154.052 412.435 153.575 411.915 153.238 411.244C152.904 410.57 152.738 409.78 152.738 408.875C152.738 407.981 152.904 407.193 153.238 406.511C153.575 405.829 154.044 405.297 154.647 404.915C155.253 404.532 155.961 404.341 156.772 404.341C157.264 404.341 157.741 404.422 158.204 404.585C158.666 404.748 159.08 405.004 159.448 405.352C159.815 405.701 160.105 406.153 160.317 406.71C160.529 407.263 160.635 407.935 160.635 408.727V409.329H153.698V408.057H158.971C158.971 407.61 158.88 407.214 158.698 406.869C158.516 406.521 158.26 406.246 157.931 406.045C157.605 405.845 157.222 405.744 156.783 405.744C156.306 405.744 155.889 405.862 155.533 406.096C155.181 406.327 154.908 406.631 154.715 407.006C154.526 407.377 154.431 407.78 154.431 408.216V409.21C154.431 409.793 154.533 410.29 154.738 410.699C154.946 411.108 155.236 411.42 155.607 411.636C155.978 411.848 156.412 411.954 156.908 411.954C157.23 411.954 157.524 411.909 157.789 411.818C158.054 411.723 158.283 411.583 158.476 411.398C158.669 411.212 158.817 410.983 158.919 410.71L160.527 411C160.399 411.473 160.168 411.888 159.834 412.244C159.505 412.596 159.09 412.871 158.59 413.068C158.094 413.261 157.527 413.358 156.891 413.358ZM161.574 405.92V404.454H168.938V405.92H166.091V413.182H164.432V405.92H161.574ZM170.559 413.182V404.454H172.258V408.113H173.076L175.957 404.454H178.059L174.678 408.699L178.099 413.182H175.991L173.36 409.693H172.258V413.182H170.559ZM181.782 413.375C181.229 413.375 180.729 413.273 180.282 413.068C179.835 412.86 179.481 412.559 179.22 412.165C178.962 411.771 178.833 411.288 178.833 410.716C178.833 410.223 178.928 409.818 179.117 409.5C179.307 409.182 179.562 408.93 179.884 408.744C180.206 408.559 180.566 408.418 180.964 408.324C181.362 408.229 181.767 408.157 182.18 408.108C182.703 408.047 183.127 407.998 183.453 407.96C183.778 407.918 184.015 407.852 184.163 407.761C184.31 407.67 184.384 407.523 184.384 407.318V407.278C184.384 406.782 184.244 406.398 183.964 406.125C183.687 405.852 183.274 405.716 182.725 405.716C182.153 405.716 181.703 405.843 181.373 406.096C181.047 406.346 180.822 406.625 180.697 406.932L179.1 406.568C179.29 406.038 179.566 405.61 179.93 405.284C180.297 404.954 180.72 404.716 181.197 404.568C181.674 404.416 182.176 404.341 182.703 404.341C183.051 404.341 183.42 404.382 183.81 404.466C184.204 404.545 184.572 404.693 184.913 404.909C185.257 405.125 185.54 405.434 185.759 405.835C185.979 406.233 186.089 406.75 186.089 407.386V413.182H184.43V411.988H184.362C184.252 412.208 184.087 412.424 183.867 412.636C183.648 412.848 183.365 413.024 183.021 413.165C182.676 413.305 182.263 413.375 181.782 413.375ZM182.151 412.011C182.621 412.011 183.023 411.918 183.356 411.733C183.693 411.547 183.949 411.305 184.123 411.006C184.301 410.702 184.39 410.379 184.39 410.034V408.909C184.329 408.97 184.212 409.026 184.038 409.079C183.867 409.129 183.672 409.172 183.453 409.21C183.233 409.244 183.019 409.276 182.81 409.307C182.602 409.333 182.428 409.356 182.288 409.375C181.958 409.416 181.657 409.487 181.384 409.585C181.115 409.684 180.899 409.826 180.737 410.011C180.578 410.193 180.498 410.435 180.498 410.738C180.498 411.159 180.653 411.477 180.964 411.693C181.274 411.905 181.67 412.011 182.151 412.011ZM196.262 413.341C195.482 413.341 194.785 413.206 194.172 412.937C193.562 412.668 193.079 412.295 192.723 411.818C192.37 411.337 192.181 410.78 192.155 410.148H193.939C193.961 410.492 194.077 410.791 194.285 411.045C194.497 411.295 194.774 411.488 195.115 411.625C195.456 411.761 195.834 411.829 196.251 411.829C196.709 411.829 197.115 411.75 197.467 411.591C197.823 411.432 198.101 411.21 198.302 410.926C198.503 410.638 198.603 410.307 198.603 409.932C198.603 409.541 198.503 409.199 198.302 408.903C198.105 408.604 197.815 408.369 197.433 408.199C197.054 408.028 196.596 407.943 196.058 407.943H195.075V406.511H196.058C196.49 406.511 196.869 406.434 197.194 406.278C197.524 406.123 197.781 405.907 197.967 405.631C198.153 405.35 198.245 405.023 198.245 404.648C198.245 404.288 198.164 403.975 198.001 403.71C197.842 403.441 197.615 403.231 197.319 403.079C197.028 402.928 196.683 402.852 196.285 402.852C195.906 402.852 195.552 402.922 195.223 403.062C194.897 403.199 194.632 403.396 194.427 403.653C194.223 403.907 194.113 404.212 194.098 404.568H192.399C192.418 403.939 192.603 403.386 192.956 402.909C193.312 402.432 193.781 402.059 194.365 401.79C194.948 401.521 195.596 401.386 196.308 401.386C197.054 401.386 197.698 401.532 198.24 401.824C198.785 402.112 199.206 402.496 199.501 402.977C199.8 403.458 199.948 403.985 199.944 404.557C199.948 405.208 199.766 405.761 199.399 406.216C199.035 406.67 198.55 406.975 197.944 407.131V407.221C198.717 407.339 199.315 407.646 199.74 408.142C200.168 408.638 200.38 409.254 200.376 409.988C200.38 410.629 200.202 411.202 199.842 411.71C199.486 412.218 198.999 412.617 198.382 412.909C197.764 413.197 197.058 413.341 196.262 413.341Z" fill="#1E1E1E"/>
<rect x="41" y="463" width="302" height="64" rx="6" fill="#C2E5FF" stroke="#3DADFF" stroke-width="4" stroke-linecap="round"/>
<rect x="55" y="471" width="54" height="48" rx="3" fill="#F24822" stroke="#BD2915" stroke-width="4" stroke-linecap="round"/>
<path d="M89.0408 486.545V504H86.6204L77.7482 491.199H77.5863V504H74.9528V486.545H77.3903L86.271 499.364H86.4329V486.545H89.0408Z" fill="white"/>
<path d="M126.17 501.341C125.39 501.341 124.693 501.206 124.08 500.937C123.47 500.668 122.987 500.295 122.631 499.818C122.278 499.337 122.089 498.78 122.062 498.148H123.847C123.869 498.492 123.985 498.791 124.193 499.045C124.405 499.295 124.682 499.488 125.023 499.625C125.364 499.761 125.742 499.829 126.159 499.829C126.617 499.829 127.023 499.75 127.375 499.591C127.731 499.432 128.009 499.21 128.21 498.926C128.411 498.638 128.511 498.307 128.511 497.932C128.511 497.541 128.411 497.199 128.21 496.903C128.013 496.604 127.723 496.369 127.341 496.199C126.962 496.028 126.504 495.943 125.966 495.943H124.983V494.511H125.966C126.398 494.511 126.777 494.434 127.102 494.278C127.432 494.123 127.689 493.907 127.875 493.631C128.061 493.35 128.153 493.023 128.153 492.648C128.153 492.288 128.072 491.975 127.909 491.71C127.75 491.441 127.523 491.231 127.227 491.079C126.936 490.928 126.591 490.852 126.193 490.852C125.814 490.852 125.46 490.922 125.131 491.062C124.805 491.199 124.54 491.396 124.335 491.653C124.131 491.907 124.021 492.212 124.006 492.568H122.307C122.326 491.939 122.511 491.386 122.864 490.909C123.22 490.432 123.689 490.059 124.273 489.79C124.856 489.521 125.504 489.386 126.216 489.386C126.962 489.386 127.606 489.532 128.148 489.824C128.693 490.112 129.114 490.496 129.409 490.977C129.708 491.458 129.856 491.985 129.852 492.557C129.856 493.208 129.674 493.761 129.307 494.216C128.943 494.67 128.458 494.975 127.852 495.131V495.221C128.625 495.339 129.223 495.646 129.648 496.142C130.076 496.638 130.288 497.254 130.284 497.988C130.288 498.629 130.11 499.202 129.75 499.71C129.394 500.218 128.907 500.617 128.29 500.909C127.672 501.197 126.966 501.341 126.17 501.341ZM134.818 501.375C134.265 501.375 133.765 501.273 133.318 501.068C132.871 500.86 132.517 500.559 132.256 500.165C131.998 499.771 131.869 499.288 131.869 498.716C131.869 498.223 131.964 497.818 132.154 497.5C132.343 497.182 132.599 496.93 132.921 496.744C133.243 496.559 133.602 496.418 134 496.324C134.398 496.229 134.803 496.157 135.216 496.108C135.739 496.047 136.163 495.998 136.489 495.96C136.815 495.918 137.051 495.852 137.199 495.761C137.347 495.67 137.421 495.523 137.421 495.318V495.278C137.421 494.782 137.28 494.398 137 494.125C136.724 493.852 136.311 493.716 135.762 493.716C135.19 493.716 134.739 493.843 134.409 494.096C134.083 494.346 133.858 494.625 133.733 494.932L132.137 494.568C132.326 494.038 132.602 493.61 132.966 493.284C133.333 492.954 133.756 492.716 134.233 492.568C134.71 492.416 135.212 492.341 135.739 492.341C136.087 492.341 136.457 492.382 136.847 492.466C137.241 492.545 137.608 492.693 137.949 492.909C138.294 493.125 138.576 493.434 138.796 493.835C139.015 494.233 139.125 494.75 139.125 495.386V501.182H137.466V499.988H137.398C137.288 500.208 137.123 500.424 136.904 500.636C136.684 500.848 136.402 501.024 136.057 501.165C135.712 501.305 135.299 501.375 134.818 501.375ZM135.188 500.011C135.657 500.011 136.059 499.918 136.392 499.733C136.729 499.547 136.985 499.305 137.159 499.006C137.337 498.702 137.426 498.379 137.426 498.034V496.909C137.366 496.97 137.248 497.026 137.074 497.079C136.904 497.129 136.708 497.172 136.489 497.21C136.269 497.244 136.055 497.276 135.847 497.307C135.638 497.333 135.464 497.356 135.324 497.375C134.994 497.416 134.693 497.487 134.421 497.585C134.152 497.684 133.936 497.826 133.773 498.011C133.614 498.193 133.534 498.435 133.534 498.738C133.534 499.159 133.69 499.477 134 499.693C134.311 499.905 134.707 500.011 135.188 500.011ZM146.11 499.079L148.928 492.454H150.394L146.74 501.182H145.479L141.899 492.454H143.348L146.11 499.079ZM142.877 492.454V501.182H141.212V492.454H142.877ZM149.388 501.182V492.454H151.041V501.182H149.388ZM156.891 501.358C156.031 501.358 155.291 501.174 154.669 500.807C154.052 500.435 153.575 499.915 153.238 499.244C152.904 498.57 152.738 497.78 152.738 496.875C152.738 495.981 152.904 495.193 153.238 494.511C153.575 493.829 154.044 493.297 154.647 492.915C155.253 492.532 155.961 492.341 156.772 492.341C157.264 492.341 157.741 492.422 158.204 492.585C158.666 492.748 159.08 493.004 159.448 493.352C159.815 493.701 160.105 494.153 160.317 494.71C160.529 495.263 160.635 495.935 160.635 496.727V497.329H153.698V496.057H158.971C158.971 495.61 158.88 495.214 158.698 494.869C158.516 494.521 158.26 494.246 157.931 494.045C157.605 493.845 157.222 493.744 156.783 493.744C156.306 493.744 155.889 493.862 155.533 494.096C155.181 494.327 154.908 494.631 154.715 495.006C154.526 495.377 154.431 495.78 154.431 496.216V497.21C154.431 497.793 154.533 498.29 154.738 498.699C154.946 499.108 155.236 499.42 155.607 499.636C155.978 499.848 156.412 499.954 156.908 499.954C157.23 499.954 157.524 499.909 157.789 499.818C158.054 499.723 158.283 499.583 158.476 499.398C158.669 499.212 158.817 498.983 158.919 498.71L160.527 499C160.399 499.473 160.168 499.888 159.834 500.244C159.505 500.596 159.09 500.871 158.59 501.068C158.094 501.261 157.527 501.358 156.891 501.358ZM161.574 493.92V492.454H168.938V493.92H166.091V501.182H164.432V493.92H161.574ZM170.559 501.182V492.454H172.258V496.113H173.076L175.957 492.454H178.059L174.678 496.699L178.099 501.182H175.991L173.36 497.693H172.258V501.182H170.559ZM181.782 501.375C181.229 501.375 180.729 501.273 180.282 501.068C179.835 500.86 179.481 500.559 179.22 500.165C178.962 499.771 178.833 499.288 178.833 498.716C178.833 498.223 178.928 497.818 179.117 497.5C179.307 497.182 179.562 496.93 179.884 496.744C180.206 496.559 180.566 496.418 180.964 496.324C181.362 496.229 181.767 496.157 182.18 496.108C182.703 496.047 183.127 495.998 183.453 495.96C183.778 495.918 184.015 495.852 184.163 495.761C184.31 495.67 184.384 495.523 184.384 495.318V495.278C184.384 494.782 184.244 494.398 183.964 494.125C183.687 493.852 183.274 493.716 182.725 493.716C182.153 493.716 181.703 493.843 181.373 494.096C181.047 494.346 180.822 494.625 180.697 494.932L179.1 494.568C179.29 494.038 179.566 493.61 179.93 493.284C180.297 492.954 180.72 492.716 181.197 492.568C181.674 492.416 182.176 492.341 182.703 492.341C183.051 492.341 183.42 492.382 183.81 492.466C184.204 492.545 184.572 492.693 184.913 492.909C185.257 493.125 185.54 493.434 185.759 493.835C185.979 494.233 186.089 494.75 186.089 495.386V501.182H184.43V499.988H184.362C184.252 500.208 184.087 500.424 183.867 500.636C183.648 500.848 183.365 501.024 183.021 501.165C182.676 501.305 182.263 501.375 181.782 501.375ZM182.151 500.011C182.621 500.011 183.023 499.918 183.356 499.733C183.693 499.547 183.949 499.305 184.123 499.006C184.301 498.702 184.39 498.379 184.39 498.034V496.909C184.329 496.97 184.212 497.026 184.038 497.079C183.867 497.129 183.672 497.172 183.453 497.21C183.233 497.244 183.019 497.276 182.81 497.307C182.602 497.333 182.428 497.356 182.288 497.375C181.958 497.416 181.657 497.487 181.384 497.585C181.115 497.684 180.899 497.826 180.737 498.011C180.578 498.193 180.498 498.435 180.498 498.738C180.498 499.159 180.653 499.477 180.964 499.693C181.274 499.905 181.67 500.011 182.151 500.011ZM191.967 498.909V497.488L196.995 489.545H198.115V491.636H197.405L193.808 497.329V497.42H200.7V498.909H191.967ZM197.484 501.182V498.477L197.495 497.829V489.545H199.16V501.182H197.484Z" fill="#1E1E1E"/>
<rect x="455" y="39" width="336" height="656" rx="6" fill="#D9D9D9" stroke="#A5A5A5" stroke-width="4" stroke-linecap="round"/>
<path d="M478.24 69.5403L475.08 69.0603V67.0603H485.96V69.0603L482.52 69.5403V80.3003H496.6V69.5403L493.36 69.0603V67.0603H504.08V69.0603L500.92 69.5403V94.4203L504.08 94.8203V96.7803H493.32V94.8203L496.6 94.4203V82.7803H482.52V94.4203L486 94.8203V96.7803H475V94.8203L478.24 94.4203V69.5403ZM507.045 85.6203C507.045 83.2203 507.538 81.1403 508.525 79.3803C509.512 77.6203 510.805 76.2869 512.405 75.3803C514.032 74.4469 515.765 73.9803 517.605 73.9803C520.965 73.9803 523.485 75.0469 525.165 77.1803C526.872 79.3136 527.725 82.1136 527.725 85.5803C527.725 88.0069 527.232 90.1003 526.245 91.8603C525.258 93.6203 523.952 94.9536 522.325 95.8603C520.725 96.7669 519.005 97.2203 517.165 97.2203C513.805 97.2203 511.272 96.1536 509.565 94.0203C507.885 91.8869 507.045 89.0869 507.045 85.6203ZM517.405 94.9403C519.245 94.9403 520.658 94.1803 521.645 92.6603C522.632 91.1403 523.125 88.8869 523.125 85.9003C523.125 82.9403 522.672 80.5936 521.765 78.8603C520.858 77.1269 519.405 76.2603 517.405 76.2603C515.565 76.2603 514.138 77.0203 513.125 78.5403C512.138 80.0603 511.645 82.3136 511.645 85.3003C511.645 88.2603 512.112 90.6069 513.045 92.3403C513.978 94.0736 515.432 94.9403 517.405 94.9403ZM552.141 74.5803L552.381 83.0203H549.741L548.661 76.9803L543.341 76.7803V94.4203L548.781 94.8203V96.7803H533.781V94.8203L539.181 94.4203V76.7803L533.781 76.9803L532.701 83.0203H530.061L530.301 74.5803H552.141ZM554.219 85.8203C554.219 83.6069 554.646 81.6069 555.499 79.8203C556.379 78.0336 557.659 76.6203 559.339 75.5803C561.046 74.5136 563.086 73.9803 565.459 73.9803C566.606 73.9803 567.592 74.0869 568.419 74.3003C569.246 74.5136 570.232 74.8069 571.379 75.1803L571.219 81.3403H568.619L567.739 77.2603C567.579 76.5136 566.566 76.1403 564.699 76.1403C562.832 76.1403 561.352 76.9003 560.259 78.4203C559.192 79.9136 558.659 82.0469 558.659 84.8203C558.659 87.9669 559.259 90.3669 560.459 92.0203C561.686 93.6469 563.272 94.4603 565.219 94.4603C566.339 94.4603 567.392 94.2869 568.379 93.9403C569.392 93.5936 570.259 93.1803 570.979 92.7003L571.739 94.3003C571.019 95.0469 569.952 95.7269 568.539 96.3403C567.152 96.9269 565.739 97.2203 564.299 97.2203C562.112 97.2203 560.259 96.7269 558.739 95.7403C557.246 94.7536 556.112 93.4069 555.339 91.7003C554.592 89.9669 554.219 88.0069 554.219 85.8203ZM574.327 90.7803C574.327 88.2736 575.58 86.4336 578.087 85.2603C580.594 84.0603 583.767 83.4203 587.607 83.3403V82.2203C587.607 80.9669 587.474 79.9803 587.207 79.2603C586.94 78.5403 586.474 78.0203 585.807 77.7003C585.167 77.3536 584.247 77.1803 583.047 77.1803C581.687 77.1803 580.46 77.3803 579.367 77.7803C578.3 78.1536 577.234 78.6203 576.167 79.1803L575.167 77.1003C575.514 76.8069 576.154 76.4203 577.087 75.9403C578.02 75.4603 579.1 75.0336 580.327 74.6603C581.554 74.2869 582.78 74.1003 584.007 74.1003C585.9 74.1003 587.394 74.3669 588.487 74.9003C589.607 75.4069 590.407 76.2336 590.887 77.3803C591.367 78.5269 591.607 80.0603 591.607 81.9803V94.8203H593.967V96.5803C593.434 96.7136 592.754 96.8469 591.927 96.9803C591.127 97.1136 590.42 97.1803 589.807 97.1803C589.06 97.1803 588.554 97.0603 588.287 96.8203C588.02 96.6069 587.887 96.1136 587.887 95.3403V94.0203C587.087 94.8203 586.1 95.5536 584.927 96.2203C583.78 96.8869 582.474 97.2203 581.007 97.2203C579.087 97.2203 577.487 96.6736 576.207 95.5803C574.954 94.4603 574.327 92.8603 574.327 90.7803ZM582.727 94.5003C583.42 94.5003 584.22 94.2869 585.127 93.8603C586.034 93.4336 586.86 92.9269 587.607 92.3403V85.4603C584.7 85.4603 582.5 85.9136 581.007 86.8203C579.54 87.7003 578.807 88.8603 578.807 90.3003C578.807 91.7403 579.154 92.8069 579.847 93.5003C580.567 94.1669 581.527 94.5003 582.727 94.5003ZM619.909 74.5803V76.5403L617.149 77.1003V94.4203L620.029 94.8203V96.7803H610.029V94.8203L613.029 94.4203V76.8603H603.069V94.4203L606.029 94.8203V96.7803H596.069V94.8203L598.949 94.4203V77.1003L596.069 76.5403V74.5803H619.909ZM646.958 74.5803V76.5403L644.198 77.1003V94.4203L647.078 94.8203V96.7803H637.078V94.8203L640.078 94.4203V76.8603H630.118V94.4203L633.078 94.8203V96.7803H623.118V94.8203L625.998 94.4203V77.1003L623.118 76.5403V74.5803H646.958Z" fill="#1E1E1E"/>
<rect x="472" y="119" width="302" height="384" rx="6" fill="#C2E5FF" stroke="#3DADFF" stroke-width="4" stroke-linecap="round"/>
<path d="M486.705 141.057V139.545H495.71V141.057H492.08V151.182H490.33V141.057H486.705ZM497.462 154.454C497.208 154.454 496.977 154.434 496.769 154.392C496.56 154.354 496.405 154.312 496.303 154.267L496.712 152.875C497.022 152.958 497.299 152.994 497.541 152.983C497.784 152.971 497.998 152.881 498.183 152.71C498.373 152.54 498.539 152.261 498.683 151.875L498.894 151.295L495.7 142.454H497.519L499.729 149.227H499.82L502.03 142.454H503.854L500.257 152.346C500.091 152.801 499.878 153.185 499.621 153.5C499.363 153.818 499.056 154.057 498.7 154.216C498.344 154.375 497.931 154.454 497.462 154.454ZM504.786 143.92V142.454H512.149V143.92H509.303V151.182H507.644V143.92H504.786ZM517.34 143.92V142.454H524.704V143.92H521.857V151.182H520.198V143.92H517.34ZM529.68 151.358C528.82 151.358 528.079 151.174 527.458 150.807C526.841 150.435 526.363 149.915 526.026 149.244C525.693 148.57 525.526 147.78 525.526 146.875C525.526 145.981 525.693 145.193 526.026 144.511C526.363 143.829 526.833 143.297 527.435 142.915C528.041 142.532 528.75 142.341 529.56 142.341C530.053 142.341 530.53 142.422 530.992 142.585C531.454 142.748 531.869 143.004 532.236 143.352C532.604 143.701 532.894 144.153 533.106 144.71C533.318 145.263 533.424 145.935 533.424 146.727V147.329H526.486V146.057H531.759C531.759 145.61 531.668 145.214 531.486 144.869C531.305 144.521 531.049 144.246 530.719 144.045C530.394 143.845 530.011 143.744 529.572 143.744C529.094 143.744 528.678 143.862 528.322 144.096C527.969 144.327 527.697 144.631 527.504 145.006C527.314 145.377 527.219 145.78 527.219 146.216V147.21C527.219 147.793 527.322 148.29 527.526 148.699C527.735 149.108 528.024 149.42 528.396 149.636C528.767 149.848 529.2 149.954 529.697 149.954C530.019 149.954 530.312 149.909 530.577 149.818C530.843 149.723 531.072 149.583 531.265 149.398C531.458 149.212 531.606 148.983 531.708 148.71L533.316 149C533.187 149.473 532.956 149.888 532.623 150.244C532.293 150.596 531.879 150.871 531.379 151.068C530.882 151.261 530.316 151.358 529.68 151.358ZM535.133 151.182V142.454H536.832V146.113H537.65L540.531 142.454H542.633L539.252 146.699L542.673 151.182H540.565L537.934 147.693H536.832V151.182H535.133ZM547.133 151.358C546.288 151.358 545.561 151.166 544.951 150.784C544.345 150.398 543.879 149.865 543.554 149.187C543.228 148.509 543.065 147.733 543.065 146.858C543.065 145.971 543.232 145.189 543.565 144.511C543.898 143.829 544.368 143.297 544.974 142.915C545.58 142.532 546.294 142.341 547.116 142.341C547.779 142.341 548.37 142.464 548.889 142.71C549.408 142.952 549.826 143.293 550.144 143.733C550.466 144.172 550.658 144.685 550.718 145.273H549.065C548.974 144.863 548.766 144.511 548.44 144.216C548.118 143.92 547.686 143.773 547.144 143.773C546.671 143.773 546.256 143.898 545.9 144.148C545.548 144.394 545.273 144.746 545.076 145.204C544.879 145.659 544.781 146.197 544.781 146.818C544.781 147.454 544.877 148.004 545.071 148.466C545.264 148.928 545.536 149.286 545.889 149.54C546.245 149.793 546.663 149.92 547.144 149.92C547.466 149.92 547.758 149.862 548.019 149.744C548.285 149.623 548.506 149.451 548.684 149.227C548.866 149.004 548.993 148.735 549.065 148.42H550.718C550.658 148.985 550.474 149.488 550.167 149.932C549.86 150.375 549.449 150.723 548.934 150.977C548.423 151.231 547.822 151.358 547.133 151.358ZM551.699 143.92V142.454H559.062V143.92H556.216V151.182H554.556V143.92H551.699ZM564.224 148.875H565.963C565.986 149.231 566.147 149.506 566.446 149.699C566.749 149.892 567.141 149.988 567.622 149.988C568.111 149.988 568.527 149.884 568.872 149.676C569.217 149.464 569.389 149.136 569.389 148.693C569.389 148.428 569.323 148.197 569.19 148C569.061 147.799 568.878 147.644 568.639 147.534C568.404 147.424 568.126 147.369 567.804 147.369H566.383V146.034H567.804C568.285 146.034 568.645 145.924 568.883 145.704C569.122 145.485 569.241 145.21 569.241 144.881C569.241 144.524 569.113 144.238 568.855 144.023C568.601 143.803 568.247 143.693 567.793 143.693C567.33 143.693 566.946 143.797 566.639 144.006C566.332 144.21 566.171 144.475 566.156 144.801H564.44C564.452 144.312 564.599 143.884 564.883 143.517C565.171 143.146 565.558 142.858 566.043 142.653C566.531 142.445 567.086 142.341 567.707 142.341C568.355 142.341 568.916 142.445 569.389 142.653C569.863 142.862 570.228 143.149 570.486 143.517C570.747 143.884 570.878 144.307 570.878 144.784C570.878 145.265 570.734 145.659 570.446 145.966C570.162 146.269 569.791 146.487 569.332 146.619V146.71C569.669 146.733 569.969 146.835 570.23 147.017C570.491 147.199 570.696 147.439 570.844 147.738C570.991 148.038 571.065 148.377 571.065 148.756C571.065 149.29 570.918 149.752 570.622 150.142C570.33 150.532 569.925 150.833 569.406 151.045C568.891 151.254 568.302 151.358 567.639 151.358C566.995 151.358 566.418 151.257 565.906 151.057C565.399 150.852 564.995 150.564 564.696 150.193C564.401 149.822 564.243 149.382 564.224 148.875ZM575.183 151.375C574.63 151.375 574.13 151.273 573.683 151.068C573.236 150.86 572.882 150.559 572.621 150.165C572.363 149.771 572.234 149.288 572.234 148.716C572.234 148.223 572.329 147.818 572.519 147.5C572.708 147.182 572.964 146.93 573.286 146.744C573.608 146.559 573.967 146.418 574.365 146.324C574.763 146.229 575.168 146.157 575.581 146.108C576.104 146.047 576.528 145.998 576.854 145.96C577.18 145.918 577.416 145.852 577.564 145.761C577.712 145.67 577.786 145.523 577.786 145.318V145.278C577.786 144.782 577.645 144.398 577.365 144.125C577.089 143.852 576.676 143.716 576.127 143.716C575.555 143.716 575.104 143.843 574.774 144.096C574.448 144.346 574.223 144.625 574.098 144.932L572.502 144.568C572.691 144.038 572.967 143.61 573.331 143.284C573.698 142.954 574.121 142.716 574.598 142.568C575.075 142.416 575.577 142.341 576.104 142.341C576.452 142.341 576.822 142.382 577.212 142.466C577.606 142.545 577.973 142.693 578.314 142.909C578.659 143.125 578.941 143.434 579.161 143.835C579.38 144.233 579.49 144.75 579.49 145.386V151.182H577.831V149.988H577.763C577.653 150.208 577.488 150.424 577.269 150.636C577.049 150.848 576.767 151.024 576.422 151.165C576.077 151.305 575.664 151.375 575.183 151.375ZM575.553 150.011C576.022 150.011 576.424 149.918 576.757 149.733C577.094 149.547 577.35 149.305 577.524 149.006C577.702 148.702 577.791 148.379 577.791 148.034V146.909C577.731 146.97 577.613 147.026 577.439 147.079C577.269 147.129 577.073 147.172 576.854 147.21C576.634 147.244 576.42 147.276 576.212 147.307C576.003 147.333 575.829 147.356 575.689 147.375C575.359 147.416 575.058 147.487 574.786 147.585C574.517 147.684 574.301 147.826 574.138 148.011C573.979 148.193 573.899 148.435 573.899 148.738C573.899 149.159 574.055 149.477 574.365 149.693C574.676 149.905 575.072 150.011 575.553 150.011ZM586.475 149.079L589.293 142.454H590.759L587.105 151.182H585.844L582.264 142.454H583.713L586.475 149.079ZM583.242 142.454V151.182H581.577V142.454H583.242ZM589.753 151.182V142.454H591.406V151.182H589.753ZM597.256 151.358C596.396 151.358 595.656 151.174 595.034 150.807C594.417 150.435 593.94 149.915 593.603 149.244C593.269 148.57 593.103 147.78 593.103 146.875C593.103 145.981 593.269 145.193 593.603 144.511C593.94 143.829 594.409 143.297 595.012 142.915C595.618 142.532 596.326 142.341 597.137 142.341C597.629 142.341 598.106 142.422 598.569 142.585C599.031 142.748 599.445 143.004 599.813 143.352C600.18 143.701 600.47 144.153 600.682 144.71C600.894 145.263 601 145.935 601 146.727V147.329H594.063V146.057H599.336C599.336 145.61 599.245 145.214 599.063 144.869C598.881 144.521 598.625 144.246 598.296 144.045C597.97 143.845 597.587 143.744 597.148 143.744C596.671 143.744 596.254 143.862 595.898 144.096C595.546 144.327 595.273 144.631 595.08 145.006C594.891 145.377 594.796 145.78 594.796 146.216V147.21C594.796 147.793 594.898 148.29 595.103 148.699C595.311 149.108 595.601 149.42 595.972 149.636C596.343 149.848 596.777 149.954 597.273 149.954C597.595 149.954 597.889 149.909 598.154 149.818C598.419 149.723 598.648 149.583 598.841 149.398C599.034 149.212 599.182 148.983 599.284 148.71L600.892 149C600.764 149.473 600.533 149.888 600.199 150.244C599.87 150.596 599.455 150.871 598.955 151.068C598.459 151.261 597.892 151.358 597.256 151.358ZM601.939 143.92V142.454H609.303V143.92H606.456V151.182H604.797V143.92H601.939ZM610.924 151.182V142.454H612.623V146.113H613.441L616.322 142.454H618.424L615.043 146.699L618.464 151.182H616.356L613.725 147.693H612.623V151.182H610.924ZM621.272 148.801L625.119 142.454H626.948V151.182H625.283V144.829L621.454 151.182H619.607V142.454H621.272V148.801Z" fill="#1E1E1E"/>
<rect x="471" y="535" width="144" height="48" rx="3" fill="#66D575" stroke="#757575" stroke-width="4" stroke-linecap="round"/>
<path d="M482.958 565V553.364H487.549C488.431 553.364 489.183 553.532 489.805 553.869C490.426 554.203 490.899 554.667 491.225 555.261C491.555 555.852 491.719 556.534 491.719 557.307C491.719 558.08 491.553 558.761 491.219 559.352C490.886 559.943 490.403 560.403 489.77 560.733C489.142 561.062 488.38 561.227 487.486 561.227H484.56V559.256H487.089C487.562 559.256 487.952 559.174 488.259 559.011C488.57 558.845 488.801 558.616 488.952 558.324C489.108 558.028 489.185 557.689 489.185 557.307C489.185 556.92 489.108 556.583 488.952 556.295C488.801 556.004 488.57 555.778 488.259 555.619C487.949 555.456 487.555 555.375 487.077 555.375H485.418V565H482.958ZM496.933 565.17C496.035 565.17 495.262 564.989 494.614 564.625C493.97 564.258 493.474 563.739 493.126 563.068C492.777 562.394 492.603 561.597 492.603 560.676C492.603 559.778 492.777 558.991 493.126 558.312C493.474 557.634 493.965 557.106 494.597 556.727C495.234 556.348 495.98 556.159 496.836 556.159C497.412 556.159 497.948 556.252 498.444 556.438C498.944 556.619 499.38 556.894 499.751 557.261C500.126 557.629 500.417 558.091 500.626 558.648C500.834 559.201 500.938 559.848 500.938 560.591V561.256H493.569V559.756H498.66C498.66 559.407 498.584 559.098 498.433 558.83C498.281 558.561 498.071 558.35 497.802 558.199C497.537 558.044 497.228 557.966 496.876 557.966C496.508 557.966 496.183 558.051 495.898 558.222C495.618 558.388 495.398 558.614 495.239 558.898C495.08 559.178 494.999 559.491 494.995 559.835V561.261C494.995 561.693 495.075 562.066 495.234 562.381C495.397 562.695 495.626 562.938 495.921 563.108C496.217 563.278 496.567 563.364 496.972 563.364C497.241 563.364 497.487 563.326 497.711 563.25C497.934 563.174 498.126 563.061 498.285 562.909C498.444 562.758 498.565 562.572 498.648 562.352L500.887 562.5C500.773 563.038 500.541 563.508 500.188 563.909C499.84 564.307 499.389 564.617 498.836 564.841C498.287 565.061 497.652 565.17 496.933 565.17ZM501.66 567.557V563.08H502.33C502.524 562.958 502.679 562.765 502.796 562.5C502.918 562.235 503.016 561.922 503.092 561.562C503.171 561.203 503.232 560.814 503.274 560.398C503.319 559.977 503.359 559.553 503.393 559.125L503.62 556.273H510.313V563.08H511.666V567.557H509.359V565H504.024V567.557H501.66ZM504.74 563.08H508.029V558.136H505.677L505.586 559.125C505.522 560.057 505.429 560.848 505.308 561.5C505.186 562.148 504.997 562.674 504.74 563.08ZM515.389 565.165C514.832 565.165 514.336 565.068 513.9 564.875C513.465 564.678 513.12 564.388 512.866 564.006C512.616 563.619 512.491 563.138 512.491 562.562C512.491 562.078 512.58 561.67 512.758 561.341C512.936 561.011 513.179 560.746 513.485 560.545C513.792 560.345 514.141 560.193 514.531 560.091C514.925 559.989 515.338 559.917 515.769 559.875C516.277 559.822 516.686 559.773 516.997 559.727C517.307 559.678 517.533 559.606 517.673 559.511C517.813 559.417 517.883 559.277 517.883 559.091V559.057C517.883 558.697 517.769 558.419 517.542 558.222C517.319 558.025 517.001 557.926 516.588 557.926C516.152 557.926 515.805 558.023 515.548 558.216C515.29 558.405 515.12 558.644 515.037 558.932L512.798 558.75C512.912 558.22 513.135 557.761 513.468 557.375C513.802 556.985 514.232 556.686 514.758 556.477C515.288 556.265 515.902 556.159 516.599 556.159C517.084 556.159 517.548 556.216 517.991 556.33C518.438 556.443 518.834 556.619 519.179 556.858C519.527 557.097 519.802 557.403 520.002 557.778C520.203 558.15 520.304 558.595 520.304 559.114V565H518.008V563.79H517.94C517.8 564.062 517.612 564.303 517.377 564.511C517.143 564.716 516.86 564.877 516.531 564.994C516.201 565.108 515.821 565.165 515.389 565.165ZM516.082 563.494C516.438 563.494 516.752 563.424 517.025 563.284C517.298 563.14 517.512 562.947 517.667 562.705C517.823 562.462 517.9 562.187 517.9 561.881V560.955C517.824 561.004 517.72 561.049 517.588 561.091C517.459 561.129 517.313 561.165 517.15 561.199C516.987 561.229 516.824 561.258 516.662 561.284C516.499 561.307 516.351 561.328 516.218 561.347C515.934 561.388 515.686 561.455 515.474 561.545C515.262 561.636 515.097 561.759 514.98 561.915C514.862 562.066 514.804 562.256 514.804 562.483C514.804 562.812 514.923 563.064 515.162 563.239C515.404 563.409 515.711 563.494 516.082 563.494ZM522.005 565V556.273H524.426V559.659H525.108L527.483 556.273H530.324L527.238 560.602L530.358 565H527.483L525.329 561.903H524.426V565H522.005ZM530.75 558.176V556.273H538.659V558.176H535.846V565H533.54V558.176H530.75ZM542.263 561.807L545.405 556.273H547.791V565H545.484V559.449L542.354 565H539.95V556.273H542.263V561.807ZM549.556 568.273V556.273H551.942V557.739H552.05C552.156 557.504 552.309 557.265 552.51 557.023C552.715 556.777 552.98 556.572 553.306 556.409C553.635 556.242 554.044 556.159 554.533 556.159C555.169 556.159 555.756 556.326 556.294 556.659C556.832 556.989 557.262 557.487 557.584 558.153C557.906 558.816 558.067 559.648 558.067 560.648C558.067 561.621 557.91 562.443 557.595 563.114C557.285 563.78 556.86 564.286 556.323 564.631C555.788 564.972 555.19 565.142 554.527 565.142C554.057 565.142 553.658 565.064 553.328 564.909C553.003 564.754 552.735 564.559 552.527 564.324C552.319 564.085 552.16 563.845 552.05 563.602H551.976V568.273H549.556ZM551.925 560.636C551.925 561.155 551.997 561.608 552.141 561.994C552.285 562.381 552.493 562.682 552.766 562.898C553.038 563.11 553.37 563.216 553.76 563.216C554.154 563.216 554.487 563.108 554.76 562.892C555.033 562.672 555.239 562.369 555.379 561.983C555.523 561.593 555.595 561.144 555.595 560.636C555.595 560.133 555.525 559.689 555.385 559.307C555.245 558.924 555.038 558.625 554.766 558.409C554.493 558.193 554.158 558.085 553.76 558.085C553.366 558.085 553.033 558.189 552.76 558.398C552.491 558.606 552.285 558.902 552.141 559.284C551.997 559.667 551.925 560.117 551.925 560.636ZM563.448 565.17C562.565 565.17 561.802 564.983 561.158 564.608C560.518 564.229 560.023 563.703 559.675 563.028C559.327 562.35 559.152 561.564 559.152 560.67C559.152 559.769 559.327 558.981 559.675 558.307C560.023 557.629 560.518 557.102 561.158 556.727C561.802 556.348 562.565 556.159 563.448 556.159C564.33 556.159 565.092 556.348 565.732 556.727C566.376 557.102 566.872 557.629 567.22 558.307C567.569 558.981 567.743 559.769 567.743 560.67C567.743 561.564 567.569 562.35 567.22 563.028C566.872 563.703 566.376 564.229 565.732 564.608C565.092 564.983 564.33 565.17 563.448 565.17ZM563.459 563.295C563.861 563.295 564.196 563.182 564.465 562.955C564.734 562.723 564.936 562.409 565.073 562.011C565.213 561.614 565.283 561.161 565.283 560.653C565.283 560.146 565.213 559.693 565.073 559.295C564.936 558.898 564.734 558.583 564.465 558.352C564.196 558.121 563.861 558.006 563.459 558.006C563.054 558.006 562.713 558.121 562.436 558.352C562.164 558.583 561.957 558.898 561.817 559.295C561.681 559.693 561.612 560.146 561.612 560.653C561.612 561.161 561.681 561.614 561.817 562.011C561.957 562.409 562.164 562.723 562.436 562.955C562.713 563.182 563.054 563.295 563.459 563.295ZM569.141 565V556.273H572.863C573.938 556.273 574.789 556.477 575.414 556.886C576.039 557.295 576.351 557.877 576.351 558.631C576.351 559.104 576.175 559.498 575.823 559.812C575.471 560.127 574.982 560.339 574.357 560.449C574.88 560.487 575.325 560.606 575.692 560.807C576.063 561.004 576.346 561.259 576.539 561.574C576.736 561.888 576.834 562.237 576.834 562.619C576.834 563.116 576.702 563.542 576.436 563.898C576.175 564.254 575.791 564.527 575.283 564.716C574.779 564.905 574.164 565 573.436 565H569.141ZM571.397 563.188H573.436C573.774 563.188 574.037 563.108 574.226 562.949C574.419 562.786 574.516 562.564 574.516 562.284C574.516 561.973 574.419 561.729 574.226 561.551C574.037 561.373 573.774 561.284 573.436 561.284H571.397V563.188ZM571.397 559.864H572.914C573.156 559.864 573.363 559.83 573.533 559.761C573.707 559.689 573.84 559.587 573.931 559.455C574.026 559.322 574.073 559.165 574.073 558.983C574.073 558.714 573.965 558.504 573.749 558.352C573.533 558.201 573.238 558.125 572.863 558.125H571.397V559.864ZM580.672 565.165C580.116 565.165 579.619 565.068 579.184 564.875C578.748 564.678 578.403 564.388 578.15 564.006C577.9 563.619 577.775 563.138 577.775 562.562C577.775 562.078 577.864 561.67 578.042 561.341C578.22 561.011 578.462 560.746 578.769 560.545C579.076 560.345 579.424 560.193 579.814 560.091C580.208 559.989 580.621 559.917 581.053 559.875C581.561 559.822 581.97 559.773 582.28 559.727C582.591 559.678 582.816 559.606 582.957 559.511C583.097 559.417 583.167 559.277 583.167 559.091V559.057C583.167 558.697 583.053 558.419 582.826 558.222C582.602 558.025 582.284 557.926 581.871 557.926C581.436 557.926 581.089 558.023 580.832 558.216C580.574 558.405 580.403 558.644 580.32 558.932L578.082 558.75C578.195 558.22 578.419 557.761 578.752 557.375C579.085 556.985 579.515 556.686 580.042 556.477C580.572 556.265 581.186 556.159 581.883 556.159C582.367 556.159 582.832 556.216 583.275 556.33C583.722 556.443 584.117 556.619 584.462 556.858C584.811 557.097 585.085 557.403 585.286 557.778C585.487 558.15 585.587 558.595 585.587 559.114V565H583.292V563.79H583.224C583.083 564.062 582.896 564.303 582.661 564.511C582.426 564.716 582.144 564.877 581.814 564.994C581.485 565.108 581.104 565.165 580.672 565.165ZM581.366 563.494C581.722 563.494 582.036 563.424 582.309 563.284C582.582 563.14 582.796 562.947 582.951 562.705C583.106 562.462 583.184 562.187 583.184 561.881V560.955C583.108 561.004 583.004 561.049 582.871 561.091C582.742 561.129 582.597 561.165 582.434 561.199C582.271 561.229 582.108 561.258 581.945 561.284C581.782 561.307 581.635 561.328 581.502 561.347C581.218 561.388 580.97 561.455 580.758 561.545C580.546 561.636 580.381 561.759 580.263 561.915C580.146 562.066 580.087 562.256 580.087 562.483C580.087 562.812 580.207 563.064 580.445 563.239C580.688 563.409 580.994 563.494 581.366 563.494ZM586.413 558.176V556.273H594.322V558.176H591.509V565H589.202V558.176H586.413ZM597.13 558.955H599.738C600.893 558.955 601.795 559.231 602.443 559.784C603.09 560.333 603.414 561.068 603.414 561.989C603.414 562.587 603.268 563.114 602.977 563.568C602.685 564.019 602.265 564.371 601.715 564.625C601.166 564.875 600.507 565 599.738 565H595.613V556.273H597.926V563.097H599.738C600.143 563.097 600.477 562.994 600.738 562.79C600.999 562.585 601.132 562.324 601.136 562.006C601.132 561.669 600.999 561.394 600.738 561.182C600.477 560.966 600.143 560.858 599.738 560.858H597.13V558.955Z" fill="black" fill-opacity="0.8"/>
<rect x="631" y="535" width="144" height="48" rx="3" fill="#F24822" stroke="#757575" stroke-width="4" stroke-linecap="round"/>
<path d="M671.74 565.159V563.159H672.371C672.685 563.159 672.939 563.121 673.132 563.045C673.326 562.966 673.479 562.85 673.593 562.699C673.71 562.544 673.809 562.35 673.888 562.119L674.03 561.739L669.803 553.364H672.348L675.087 559.091L677.377 553.364H679.888L675.877 562.716C675.684 563.148 675.454 563.549 675.189 563.92C674.928 564.292 674.593 564.591 674.184 564.818C673.774 565.045 673.252 565.159 672.615 565.159H671.74ZM680.316 567.557V563.08H680.986C681.179 562.958 681.335 562.765 681.452 562.5C681.573 562.235 681.672 561.922 681.748 561.562C681.827 561.203 681.888 560.814 681.929 560.398C681.975 559.977 682.015 559.553 682.049 559.125L682.276 556.273H688.969V563.08H690.321V567.557H688.015V565H682.679V567.557H680.316ZM683.395 563.08H686.685V558.136H684.333L684.242 559.125C684.178 560.057 684.085 560.848 683.964 561.5C683.842 562.148 683.653 562.674 683.395 563.08ZM694.045 565.165C693.488 565.165 692.992 565.068 692.556 564.875C692.12 564.678 691.776 564.388 691.522 564.006C691.272 563.619 691.147 563.138 691.147 562.562C691.147 562.078 691.236 561.67 691.414 561.341C691.592 561.011 691.834 560.746 692.141 560.545C692.448 560.345 692.797 560.193 693.187 560.091C693.581 559.989 693.993 559.917 694.425 559.875C694.933 559.822 695.342 559.773 695.653 559.727C695.963 559.678 696.189 559.606 696.329 559.511C696.469 559.417 696.539 559.277 696.539 559.091V559.057C696.539 558.697 696.425 558.419 696.198 558.222C695.975 558.025 695.656 557.926 695.243 557.926C694.808 557.926 694.461 558.023 694.204 558.216C693.946 558.405 693.776 558.644 693.692 558.932L691.454 558.75C691.567 558.22 691.791 557.761 692.124 557.375C692.457 556.985 692.887 556.686 693.414 556.477C693.944 556.265 694.558 556.159 695.255 556.159C695.74 556.159 696.204 556.216 696.647 556.33C697.094 556.443 697.49 556.619 697.834 556.858C698.183 557.097 698.457 557.403 698.658 557.778C698.859 558.15 698.959 558.595 698.959 559.114V565H696.664V563.79H696.596C696.456 564.062 696.268 564.303 696.033 564.511C695.798 564.716 695.516 564.877 695.187 564.994C694.857 565.108 694.476 565.165 694.045 565.165ZM694.738 563.494C695.094 563.494 695.408 563.424 695.681 563.284C695.954 563.14 696.168 562.947 696.323 562.705C696.478 562.462 696.556 562.187 696.556 561.881V560.955C696.48 561.004 696.376 561.049 696.243 561.091C696.115 561.129 695.969 561.165 695.806 561.199C695.643 561.229 695.48 561.258 695.317 561.284C695.154 561.307 695.007 561.328 694.874 561.347C694.59 561.388 694.342 561.455 694.13 561.545C693.918 561.636 693.753 561.759 693.636 561.915C693.518 562.066 693.459 562.256 693.459 562.483C693.459 562.812 693.579 563.064 693.817 563.239C694.06 563.409 694.367 563.494 694.738 563.494ZM700.15 565L700.138 563.08H700.428C700.633 563.08 700.809 563.03 700.957 562.932C701.108 562.83 701.233 562.665 701.332 562.438C701.43 562.21 701.508 561.909 701.565 561.534C701.621 561.155 701.659 560.689 701.678 560.136L701.82 556.273H708.457V565H706.15V558.176H703.996L703.86 560.841C703.826 561.572 703.737 562.201 703.593 562.727C703.453 563.254 703.258 563.686 703.008 564.023C702.758 564.356 702.457 564.602 702.104 564.761C701.752 564.92 701.343 565 700.877 565H700.15ZM712.47 561.807L715.612 556.273H717.998V565H715.691V559.449L712.561 565H710.157V556.273H712.47V561.807ZM718.886 558.176V556.273H726.795V558.176H723.983V565H721.676V558.176H718.886ZM729.603 558.955H732.211C733.367 558.955 734.268 559.231 734.916 559.784C735.564 560.333 735.887 561.068 735.887 561.989C735.887 562.587 735.742 563.114 735.45 563.568C735.158 564.019 734.738 564.371 734.189 564.625C733.639 564.875 732.98 565 732.211 565H728.086V556.273H730.399V563.097H732.211C732.617 563.097 732.95 562.994 733.211 562.79C733.473 562.585 733.605 562.324 733.609 562.006C733.605 561.669 733.473 561.394 733.211 561.182C732.95 560.966 732.617 560.858 732.211 560.858H729.603V558.955Z" fill="white"/>
<rect x="472" y="615" width="144" height="48" rx="3" fill="#FFC2EC" stroke="#757575" stroke-width="4" stroke-linecap="round"/>
<path d="M499.513 642.324L501.876 636.273H503.717L500.314 645H498.706L495.382 636.273H497.217L499.513 642.324ZM496.666 636.273V645H494.354V636.273H496.666ZM502.479 645V636.273H504.763V645H502.479ZM510.402 645.17C509.52 645.17 508.756 644.983 508.112 644.608C507.472 644.229 506.978 643.703 506.629 643.028C506.281 642.35 506.107 641.564 506.107 640.67C506.107 639.769 506.281 638.981 506.629 638.307C506.978 637.629 507.472 637.102 508.112 636.727C508.756 636.348 509.52 636.159 510.402 636.159C511.285 636.159 512.046 636.348 512.686 636.727C513.33 637.102 513.826 637.629 514.175 638.307C514.523 638.981 514.698 639.769 514.698 640.67C514.698 641.564 514.523 642.35 514.175 643.028C513.826 643.703 513.33 644.229 512.686 644.608C512.046 644.983 511.285 645.17 510.402 645.17ZM510.414 643.295C510.815 643.295 511.15 643.182 511.419 642.955C511.688 642.723 511.891 642.409 512.027 642.011C512.167 641.614 512.237 641.161 512.237 640.653C512.237 640.146 512.167 639.693 512.027 639.295C511.891 638.898 511.688 638.583 511.419 638.352C511.15 638.121 510.815 638.006 510.414 638.006C510.008 638.006 509.667 638.121 509.391 638.352C509.118 638.583 508.912 638.898 508.771 639.295C508.635 639.693 508.567 640.146 508.567 640.653C508.567 641.161 508.635 641.614 508.771 642.011C508.912 642.409 509.118 642.723 509.391 642.955C509.667 643.182 510.008 643.295 510.414 643.295ZM518.408 641.807L521.55 636.273H523.936V645H521.63V639.449L518.499 645H516.095V636.273H518.408V641.807ZM528.779 642.528H531.126C531.137 642.816 531.266 643.044 531.512 643.21C531.758 643.377 532.076 643.46 532.466 643.46C532.86 643.46 533.192 643.369 533.461 643.188C533.73 643.002 533.864 642.737 533.864 642.392C533.864 642.18 533.811 641.996 533.705 641.841C533.599 641.682 533.451 641.557 533.262 641.466C533.073 641.375 532.853 641.33 532.603 641.33H531.347V639.744H532.603C532.978 639.744 533.266 639.657 533.466 639.483C533.671 639.309 533.773 639.091 533.773 638.83C533.773 638.534 533.667 638.297 533.455 638.119C533.247 637.937 532.965 637.847 532.609 637.847C532.249 637.847 531.949 637.928 531.711 638.091C531.476 638.25 531.355 638.458 531.347 638.716H529.012C529.02 638.193 529.177 637.741 529.484 637.358C529.794 636.975 530.211 636.68 530.734 636.472C531.26 636.263 531.849 636.159 532.501 636.159C533.213 636.159 533.826 636.259 534.341 636.46C534.86 636.657 535.258 636.939 535.535 637.307C535.815 637.674 535.955 638.112 535.955 638.619C535.955 639.081 535.804 639.468 535.501 639.778C535.198 640.089 534.773 640.311 534.228 640.443V640.534C534.588 640.557 534.913 640.653 535.205 640.824C535.497 640.994 535.73 641.229 535.904 641.528C536.078 641.824 536.165 642.174 536.165 642.58C536.165 643.121 536.006 643.585 535.688 643.972C535.374 644.358 534.938 644.655 534.381 644.864C533.828 645.068 533.194 645.17 532.478 645.17C531.781 645.17 531.156 645.07 530.603 644.869C530.054 644.665 529.616 644.366 529.29 643.972C528.968 643.578 528.798 643.097 528.779 642.528ZM539.962 645.165C539.406 645.165 538.909 645.068 538.474 644.875C538.038 644.678 537.693 644.388 537.44 644.006C537.19 643.619 537.065 643.138 537.065 642.562C537.065 642.078 537.154 641.67 537.332 641.341C537.51 641.011 537.752 640.746 538.059 640.545C538.366 640.345 538.714 640.193 539.104 640.091C539.498 639.989 539.911 639.917 540.343 639.875C540.851 639.822 541.26 639.773 541.57 639.727C541.881 639.678 542.106 639.606 542.246 639.511C542.387 639.417 542.457 639.277 542.457 639.091V639.057C542.457 638.697 542.343 638.419 542.116 638.222C541.892 638.025 541.574 637.926 541.161 637.926C540.726 637.926 540.379 638.023 540.121 638.216C539.864 638.405 539.693 638.644 539.61 638.932L537.371 638.75C537.485 638.22 537.709 637.761 538.042 637.375C538.375 636.985 538.805 636.686 539.332 636.477C539.862 636.265 540.476 636.159 541.173 636.159C541.657 636.159 542.121 636.216 542.565 636.33C543.012 636.443 543.407 636.619 543.752 636.858C544.101 637.097 544.375 637.403 544.576 637.778C544.777 638.15 544.877 638.595 544.877 639.114V645H542.582V643.79H542.513C542.373 644.062 542.186 644.303 541.951 644.511C541.716 644.716 541.434 644.877 541.104 644.994C540.775 645.108 540.394 645.165 539.962 645.165ZM540.656 643.494C541.012 643.494 541.326 643.424 541.599 643.284C541.871 643.14 542.085 642.947 542.241 642.705C542.396 642.462 542.474 642.187 542.474 641.881V640.955C542.398 641.004 542.294 641.049 542.161 641.091C542.032 641.129 541.887 641.165 541.724 641.199C541.561 641.229 541.398 641.258 541.235 641.284C541.072 641.307 540.924 641.328 540.792 641.347C540.508 641.388 540.26 641.455 540.048 641.545C539.835 641.636 539.671 641.759 539.553 641.915C539.436 642.066 539.377 642.256 539.377 642.483C539.377 642.812 539.496 643.064 539.735 643.239C539.978 643.409 540.284 643.494 540.656 643.494ZM551.738 642.324L554.102 636.273H555.943L552.539 645H550.931L547.607 636.273H549.443L551.738 642.324ZM548.891 636.273V645H546.579V636.273H548.891ZM554.704 645V636.273H556.988V645H554.704ZM562.661 645.17C561.764 645.17 560.991 644.989 560.343 644.625C559.699 644.258 559.203 643.739 558.855 643.068C558.506 642.394 558.332 641.597 558.332 640.676C558.332 639.778 558.506 638.991 558.855 638.312C559.203 637.634 559.694 637.106 560.326 636.727C560.963 636.348 561.709 636.159 562.565 636.159C563.141 636.159 563.677 636.252 564.173 636.438C564.673 636.619 565.108 636.894 565.48 637.261C565.855 637.629 566.146 638.091 566.355 638.648C566.563 639.201 566.667 639.848 566.667 640.591V641.256H559.298V639.756H564.389C564.389 639.407 564.313 639.098 564.161 638.83C564.01 638.561 563.8 638.35 563.531 638.199C563.266 638.044 562.957 637.966 562.605 637.966C562.237 637.966 561.911 638.051 561.627 638.222C561.347 638.388 561.127 638.614 560.968 638.898C560.809 639.178 560.728 639.491 560.724 639.835V641.261C560.724 641.693 560.804 642.066 560.963 642.381C561.126 642.695 561.355 642.938 561.65 643.108C561.946 643.278 562.296 643.364 562.701 643.364C562.97 643.364 563.216 643.326 563.44 643.25C563.663 643.174 563.855 643.061 564.014 642.909C564.173 642.758 564.294 642.572 564.377 642.352L566.616 642.5C566.502 643.038 566.269 643.508 565.917 643.909C565.569 644.307 565.118 644.617 564.565 644.841C564.016 645.061 563.381 645.17 562.661 645.17ZM567.397 638.176V636.273H575.307V638.176H572.494V645H570.187V638.176H567.397ZM576.598 645V636.273H579.018V639.659H579.7L582.075 636.273H584.916L581.831 640.602L584.95 645H582.075L579.922 641.903H579.018V645H576.598ZM588.109 641.807L591.251 636.273H593.638V645H591.331V639.449L588.2 645H585.797V636.273H588.109V641.807Z" fill="black" fill-opacity="0.8"/>
<path d="M351 229C349.895 229 349 229.896 349 231C349 232.105 349.895 233 351 233V231V229ZM429.69 180.213C429.69 181.318 431.043 182.099 431.999 181.547L447.381 172.666C448.337 172.114 448.337 170.552 447.381 170L431.999 161.119C431.043 160.567 429.69 161.348 429.69 162.453V180.213ZM351 231V233H375V231V229H351V231ZM399 207H401V195.333H399H397V207H399ZM423 171.333V173.333H431.69V171.333V169.333H423V171.333ZM399 195.333H401C401 183.183 410.85 173.333 423 173.333V171.333V169.333C408.641 169.333 397 180.974 397 195.333H399ZM375 231V233C389.359 233 401 221.36 401 207H399H397C397 219.151 387.15 229 375 229V231Z" fill="#1E1E1E"/>
</svg>
