<svg width="2994" height="817" viewBox="0 0 2994 817" fill="none" xmlns="http://www.w3.org/2000/svg">
<rect x="70.5" y="233.5" width="876" height="357" rx="47.5" stroke="black" stroke-width="5"/>
<path d="M165.891 432V384.727H198.16V394.006H177.317V403.701H196.106V413.003H177.317V432H165.891ZM203.215 432V396.545H214.179V403.009H214.548C215.195 400.67 216.249 398.931 217.711 397.792C219.173 396.638 220.873 396.061 222.812 396.061C223.335 396.061 223.874 396.099 224.428 396.176C224.982 396.238 225.497 396.338 225.974 396.476V406.286C225.436 406.102 224.728 405.955 223.851 405.848C222.989 405.74 222.219 405.686 221.542 405.686C220.204 405.686 218.996 405.986 217.918 406.586C216.857 407.171 216.018 407.994 215.402 409.056C214.802 410.103 214.502 411.334 214.502 412.749V432H203.215ZM245.283 432.669C241.559 432.669 238.358 431.908 235.68 430.384C233.018 428.845 230.964 426.706 229.517 423.967C228.086 421.213 227.371 418.02 227.371 414.388C227.371 410.741 228.086 407.548 229.517 404.809C230.964 402.054 233.018 399.915 235.68 398.392C238.358 396.853 241.559 396.084 245.283 396.084C249.007 396.084 252.2 396.853 254.862 398.392C257.539 399.915 259.594 402.054 261.025 404.809C262.471 407.548 263.195 410.741 263.195 414.388C263.195 418.02 262.471 421.213 261.025 423.967C259.594 426.706 257.539 428.845 254.862 430.384C252.2 431.908 249.007 432.669 245.283 432.669ZM245.352 424.152C246.706 424.152 247.852 423.737 248.791 422.906C249.73 422.075 250.445 420.92 250.938 419.443C251.446 417.966 251.7 416.258 251.7 414.319C251.7 412.349 251.446 410.626 250.938 409.148C250.445 407.671 249.73 406.517 248.791 405.686C247.852 404.855 246.706 404.44 245.352 404.44C243.952 404.44 242.767 404.855 241.797 405.686C240.843 406.517 240.112 407.671 239.604 409.148C239.112 410.626 238.866 412.349 238.866 414.319C238.866 416.258 239.112 417.966 239.604 419.443C240.112 420.92 240.843 422.075 241.797 422.906C242.767 423.737 243.952 424.152 245.352 424.152ZM280.264 411.78V432H268.977V396.545H279.71V403.055H280.102C280.887 400.885 282.226 399.185 284.119 397.953C286.011 396.707 288.266 396.084 290.882 396.084C293.375 396.084 295.537 396.645 297.368 397.769C299.215 398.877 300.646 400.431 301.661 402.431C302.692 404.417 303.2 406.74 303.185 409.402V432H291.898V411.618C291.913 409.649 291.413 408.11 290.397 407.002C289.397 405.894 288.004 405.34 286.219 405.34C285.034 405.34 283.988 405.601 283.08 406.125C282.188 406.632 281.495 407.363 281.003 408.317C280.526 409.272 280.279 410.426 280.264 411.78ZM330.185 396.545V404.855H307.819V396.545H330.185ZM312.504 388.051H323.792V420.851C323.792 421.544 323.899 422.105 324.115 422.536C324.346 422.952 324.676 423.252 325.107 423.436C325.538 423.606 326.054 423.69 326.654 423.69C327.085 423.69 327.539 423.652 328.016 423.575C328.508 423.483 328.877 423.406 329.124 423.344L330.832 431.492C330.293 431.646 329.531 431.838 328.547 432.069C327.577 432.3 326.415 432.446 325.061 432.508C322.414 432.631 320.145 432.323 318.252 431.585C316.374 430.83 314.936 429.661 313.935 428.076C312.951 426.491 312.474 424.498 312.504 422.098V388.051ZM352.137 432.669C348.428 432.669 345.227 431.938 342.534 430.477C339.857 428.999 337.795 426.899 336.348 424.175C334.917 421.436 334.202 418.181 334.202 414.411C334.202 410.749 334.925 407.548 336.371 404.809C337.818 402.054 339.857 399.915 342.488 398.392C345.12 396.853 348.22 396.084 351.791 396.084C354.314 396.084 356.622 396.476 358.715 397.261C360.808 398.046 362.616 399.208 364.14 400.746C365.663 402.285 366.848 404.186 367.694 406.448C368.541 408.694 368.964 411.272 368.964 414.18V416.996H338.149V410.441H358.461C358.446 409.241 358.161 408.171 357.607 407.233C357.053 406.294 356.292 405.563 355.322 405.04C354.368 404.501 353.268 404.232 352.021 404.232C350.76 404.232 349.628 404.517 348.628 405.086C347.628 405.64 346.836 406.402 346.251 407.371C345.666 408.325 345.358 409.41 345.327 410.626V417.297C345.327 418.743 345.612 420.013 346.182 421.105C346.751 422.182 347.559 423.021 348.605 423.621C349.652 424.221 350.898 424.521 352.345 424.521C353.345 424.521 354.253 424.383 355.068 424.106C355.884 423.829 356.584 423.421 357.169 422.882C357.753 422.344 358.192 421.682 358.484 420.897L368.848 421.197C368.418 423.521 367.471 425.545 366.009 427.268C364.563 428.976 362.662 430.307 360.308 431.261C357.954 432.2 355.23 432.669 352.137 432.669ZM386.016 411.78V432H374.729V396.545H385.462V403.055H385.854C386.639 400.885 387.978 399.185 389.871 397.953C391.763 396.707 394.018 396.084 396.634 396.084C399.127 396.084 401.289 396.645 403.12 397.769C404.967 398.877 406.398 400.431 407.413 402.431C408.444 404.417 408.952 406.74 408.937 409.402V432H397.649V411.618C397.665 409.649 397.165 408.11 396.149 407.002C395.149 405.894 393.756 405.34 391.971 405.34C390.786 405.34 389.74 405.601 388.832 406.125C387.939 406.632 387.247 407.363 386.755 408.317C386.278 409.272 386.031 410.426 386.016 411.78ZM428.874 432.508C426.258 432.508 423.881 431.831 421.742 430.477C419.603 429.122 417.895 427.091 416.617 424.383C415.34 421.674 414.702 418.312 414.702 414.296C414.702 410.126 415.363 406.694 416.687 404.001C418.01 401.308 419.741 399.315 421.88 398.023C424.035 396.73 426.35 396.084 428.828 396.084C430.69 396.084 432.283 396.407 433.606 397.053C434.929 397.684 436.022 398.5 436.884 399.5C437.745 400.5 438.399 401.539 438.846 402.616H439.077V384.727H450.364V432H439.192V426.252H438.846C438.369 427.345 437.692 428.368 436.814 429.322C435.937 430.277 434.837 431.046 433.514 431.631C432.206 432.215 430.659 432.508 428.874 432.508ZM432.798 423.713C434.168 423.713 435.337 423.329 436.307 422.559C437.276 421.775 438.022 420.674 438.546 419.259C439.069 417.843 439.33 416.181 439.33 414.273C439.33 412.334 439.069 410.664 438.546 409.264C438.038 407.864 437.292 406.786 436.307 406.032C435.337 405.278 434.168 404.901 432.798 404.901C431.398 404.901 430.213 405.286 429.243 406.055C428.274 406.825 427.535 407.91 427.028 409.31C426.535 410.71 426.289 412.365 426.289 414.273C426.289 416.181 426.543 417.843 427.051 419.259C427.558 420.674 428.289 421.775 429.243 422.559C430.213 423.329 431.398 423.713 432.798 423.713ZM481.692 432H469.413L485.363 384.727H500.574L516.524 432H504.244L493.141 396.638H492.772L481.692 432ZM480.054 413.396H505.721V422.075H480.054V413.396ZM521.613 445.295V396.545H532.785V402.616H533.132C533.593 401.539 534.247 400.5 535.094 399.5C535.955 398.5 537.048 397.684 538.371 397.053C539.71 396.407 541.31 396.084 543.172 396.084C545.634 396.084 547.935 396.73 550.074 398.023C552.228 399.315 553.967 401.308 555.291 404.001C556.614 406.694 557.276 410.126 557.276 414.296C557.276 418.312 556.637 421.674 555.36 424.383C554.098 427.091 552.39 429.122 550.236 430.477C548.097 431.831 545.719 432.508 543.103 432.508C541.318 432.508 539.772 432.215 538.464 431.631C537.156 431.046 536.055 430.277 535.163 429.322C534.286 428.368 533.609 427.345 533.132 426.252H532.901V445.295H521.613ZM532.67 414.273C532.67 416.181 532.924 417.843 533.432 419.259C533.955 420.674 534.701 421.775 535.671 422.559C536.655 423.329 537.833 423.713 539.202 423.713C540.587 423.713 541.764 423.329 542.734 422.559C543.703 421.775 544.434 420.674 544.927 419.259C545.434 417.843 545.688 416.181 545.688 414.273C545.688 412.365 545.434 410.71 544.927 409.31C544.434 407.91 543.703 406.825 542.734 406.055C541.78 405.286 540.603 404.901 539.202 404.901C537.817 404.901 536.64 405.278 535.671 406.032C534.701 406.786 533.955 407.864 533.432 409.264C532.924 410.664 532.67 412.334 532.67 414.273ZM563.191 445.295V396.545H574.362V402.616H574.709C575.17 401.539 575.824 400.5 576.671 399.5C577.532 398.5 578.625 397.684 579.948 397.053C581.287 396.407 582.888 396.084 584.75 396.084C587.212 396.084 589.512 396.73 591.651 398.023C593.806 399.315 595.544 401.308 596.868 404.001C598.191 406.694 598.853 410.126 598.853 414.296C598.853 418.312 598.214 421.674 596.937 424.383C595.675 427.091 593.967 429.122 591.813 430.477C589.674 431.831 587.296 432.508 584.68 432.508C582.895 432.508 581.349 432.215 580.041 431.631C578.733 431.046 577.632 430.277 576.74 429.322C575.863 428.368 575.186 427.345 574.709 426.252H574.478V445.295H563.191ZM574.247 414.273C574.247 416.181 574.501 417.843 575.009 419.259C575.532 420.674 576.278 421.775 577.248 422.559C578.233 423.329 579.41 423.713 580.779 423.713C582.164 423.713 583.341 423.329 584.311 422.559C585.28 421.775 586.011 420.674 586.504 419.259C587.012 417.843 587.265 416.181 587.265 414.273C587.265 412.365 587.012 410.71 586.504 409.31C586.011 407.91 585.28 406.825 584.311 406.055C583.357 405.286 582.18 404.901 580.779 404.901C579.394 404.901 578.217 405.278 577.248 406.032C576.278 406.786 575.532 407.864 575.009 409.264C574.501 410.664 574.247 412.334 574.247 414.273ZM616.055 384.727V432H604.768V384.727H616.055ZM623.239 432V396.545H634.527V432H623.239ZM628.895 392.414C627.31 392.414 625.948 391.891 624.809 390.844C623.67 389.782 623.101 388.505 623.101 387.012C623.101 385.535 623.67 384.273 624.809 383.227C625.948 382.165 627.31 381.634 628.895 381.634C630.495 381.634 631.857 382.165 632.98 383.227C634.119 384.273 634.688 385.535 634.688 387.012C634.688 388.505 634.119 389.782 632.98 390.844C631.857 391.891 630.495 392.414 628.895 392.414ZM658.261 432.669C654.522 432.669 651.313 431.9 648.636 430.361C645.974 428.822 643.927 426.683 642.496 423.944C641.065 421.19 640.349 418.004 640.349 414.388C640.349 410.757 641.065 407.571 642.496 404.832C643.942 402.078 645.997 399.931 648.659 398.392C651.336 396.853 654.529 396.084 658.238 396.084C661.516 396.084 664.37 396.676 666.802 397.861C669.248 399.046 671.157 400.723 672.526 402.893C673.911 405.047 674.642 407.579 674.719 410.487H664.17C663.955 408.671 663.339 407.248 662.324 406.217C661.323 405.186 660.015 404.67 658.4 404.67C657.092 404.67 655.945 405.04 654.96 405.778C653.976 406.502 653.206 407.579 652.652 409.01C652.114 410.426 651.844 412.18 651.844 414.273C651.844 416.366 652.114 418.135 652.652 419.582C653.206 421.013 653.976 422.098 654.96 422.836C655.945 423.56 657.092 423.921 658.4 423.921C659.446 423.921 660.369 423.698 661.17 423.252C661.985 422.806 662.654 422.152 663.178 421.29C663.701 420.413 664.032 419.351 664.17 418.104H674.719C674.611 421.028 673.88 423.583 672.526 425.768C671.187 427.953 669.302 429.653 666.871 430.869C664.455 432.069 661.585 432.669 658.261 432.669ZM690.49 432.6C688.228 432.6 686.22 432.223 684.465 431.469C682.727 430.7 681.349 429.546 680.334 428.007C679.333 426.453 678.833 424.506 678.833 422.167C678.833 420.197 679.18 418.535 679.872 417.181C680.564 415.827 681.519 414.727 682.734 413.88C683.95 413.034 685.35 412.395 686.935 411.964C688.52 411.518 690.213 411.218 692.013 411.064C694.029 410.88 695.653 410.687 696.884 410.487C698.115 410.272 699.007 409.972 699.561 409.587C700.131 409.187 700.415 408.625 700.415 407.902V407.787C700.415 406.602 700.008 405.686 699.192 405.04C698.376 404.393 697.276 404.07 695.891 404.07C694.399 404.07 693.198 404.393 692.29 405.04C691.382 405.686 690.805 406.579 690.559 407.717L680.149 407.348C680.457 405.194 681.249 403.27 682.527 401.577C683.819 399.869 685.589 398.531 687.835 397.561C690.098 396.576 692.814 396.084 695.984 396.084C698.246 396.084 700.331 396.353 702.239 396.892C704.147 397.415 705.809 398.184 707.225 399.2C708.64 400.2 709.733 401.431 710.502 402.893C711.287 404.355 711.68 406.025 711.68 407.902V432H701.062V427.06H700.785C700.154 428.261 699.346 429.276 698.361 430.107C697.392 430.938 696.245 431.561 694.922 431.977C693.614 432.392 692.136 432.6 690.49 432.6ZM693.975 425.214C695.191 425.214 696.284 424.968 697.253 424.475C698.238 423.983 699.023 423.306 699.607 422.444C700.192 421.567 700.485 420.551 700.485 419.397V416.027C700.161 416.196 699.769 416.35 699.307 416.489C698.861 416.627 698.369 416.758 697.83 416.881C697.292 417.004 696.738 417.112 696.168 417.204C695.599 417.297 695.053 417.381 694.529 417.458C693.468 417.627 692.56 417.889 691.806 418.243C691.067 418.597 690.498 419.058 690.098 419.628C689.713 420.182 689.52 420.844 689.52 421.613C689.52 422.782 689.936 423.675 690.767 424.29C691.613 424.906 692.683 425.214 693.975 425.214ZM738.594 396.545V404.855H716.227V396.545H738.594ZM720.913 388.051H732.2V420.851C732.2 421.544 732.308 422.105 732.523 422.536C732.754 422.952 733.085 423.252 733.515 423.436C733.946 423.606 734.462 423.69 735.062 423.69C735.493 423.69 735.947 423.652 736.424 423.575C736.916 423.483 737.286 423.406 737.532 423.344L739.24 431.492C738.701 431.646 737.94 431.838 736.955 432.069C735.985 432.3 734.823 432.446 733.469 432.508C730.823 432.631 728.553 432.323 726.66 431.585C724.783 430.83 723.344 429.661 722.344 428.076C721.359 426.491 720.882 424.498 720.913 422.098V388.051ZM744.353 432V396.545H755.64V432H744.353ZM750.008 392.414C748.423 392.414 747.061 391.891 745.922 390.844C744.784 389.782 744.214 388.505 744.214 387.012C744.214 385.535 744.784 384.273 745.922 383.227C747.061 382.165 748.423 381.634 750.008 381.634C751.608 381.634 752.97 382.165 754.093 383.227C755.232 384.273 755.802 385.535 755.802 387.012C755.802 388.505 755.232 389.782 754.093 390.844C752.97 391.891 751.608 392.414 750.008 392.414ZM779.374 432.669C775.65 432.669 772.45 431.908 769.772 430.384C767.11 428.845 765.056 426.706 763.609 423.967C762.178 421.213 761.462 418.02 761.462 414.388C761.462 410.741 762.178 407.548 763.609 404.809C765.056 402.054 767.11 399.915 769.772 398.392C772.45 396.853 775.65 396.084 779.374 396.084C783.098 396.084 786.291 396.853 788.954 398.392C791.631 399.915 793.686 402.054 795.117 404.809C796.563 407.548 797.286 410.741 797.286 414.388C797.286 418.02 796.563 421.213 795.117 423.967C793.686 426.706 791.631 428.845 788.954 430.384C786.291 431.908 783.098 432.669 779.374 432.669ZM779.444 424.152C780.798 424.152 781.944 423.737 782.883 422.906C783.822 422.075 784.537 420.92 785.03 419.443C785.537 417.966 785.791 416.258 785.791 414.319C785.791 412.349 785.537 410.626 785.03 409.148C784.537 407.671 783.822 406.517 782.883 405.686C781.944 404.855 780.798 404.44 779.444 404.44C778.043 404.44 776.858 404.855 775.889 405.686C774.935 406.517 774.204 407.671 773.696 409.148C773.204 410.626 772.958 412.349 772.958 414.319C772.958 416.258 773.204 417.966 773.696 419.443C774.204 420.92 774.935 422.075 775.889 422.906C776.858 423.737 778.043 424.152 779.444 424.152ZM814.356 411.78V432H803.068V396.545H813.802V403.055H814.194C814.979 400.885 816.318 399.185 818.211 397.953C820.103 396.707 822.358 396.084 824.974 396.084C827.467 396.084 829.629 396.645 831.46 397.769C833.306 398.877 834.738 400.431 835.753 402.431C836.784 404.417 837.292 406.74 837.277 409.402V432H825.989V411.618C826.005 409.649 825.505 408.11 824.489 407.002C823.489 405.894 822.096 405.34 820.311 405.34C819.126 405.34 818.08 405.601 817.172 406.125C816.279 406.632 815.587 407.363 815.094 408.317C814.617 409.272 814.371 410.426 814.356 411.78Z" fill="black"/>
<rect x="1271.5" y="233.5" width="876" height="357" rx="47.5" stroke="black" stroke-width="5"/>
<path d="M1574.02 431V383.727H1593.74C1597.28 383.727 1600.24 384.227 1602.62 385.228C1605.02 386.228 1606.82 387.628 1608.02 389.429C1609.24 391.229 1609.85 393.314 1609.85 395.684C1609.85 397.484 1609.47 399.092 1608.72 400.508C1607.96 401.908 1606.92 403.07 1605.6 403.994C1604.28 404.917 1602.75 405.563 1601.01 405.933V406.394C1602.92 406.487 1604.68 407.002 1606.29 407.941C1607.92 408.879 1609.23 410.187 1610.22 411.865C1611.2 413.527 1611.7 415.496 1611.7 417.774C1611.7 420.313 1611.05 422.583 1609.76 424.583C1608.46 426.568 1606.59 428.138 1604.15 429.292C1601.7 430.431 1598.73 431 1595.24 431H1574.02ZM1585.45 421.79H1592.51C1594.99 421.79 1596.81 421.321 1597.98 420.382C1599.17 419.443 1599.76 418.135 1599.76 416.458C1599.76 415.242 1599.48 414.196 1598.91 413.319C1598.34 412.426 1597.53 411.742 1596.48 411.265C1595.44 410.772 1594.18 410.526 1592.72 410.526H1585.45V421.79ZM1585.45 403.163H1591.77C1593.02 403.163 1594.13 402.955 1595.1 402.539C1596.07 402.124 1596.82 401.524 1597.36 400.739C1597.91 399.954 1598.19 399.008 1598.19 397.9C1598.19 396.315 1597.63 395.068 1596.51 394.161C1595.38 393.253 1593.87 392.799 1591.96 392.799H1585.45V403.163ZM1627.18 431.6C1624.92 431.6 1622.91 431.223 1621.16 430.469C1619.42 429.7 1618.04 428.546 1617.03 427.007C1616.03 425.453 1615.53 423.506 1615.53 421.167C1615.53 419.197 1615.87 417.535 1616.57 416.181C1617.26 414.827 1618.21 413.727 1619.43 412.88C1620.64 412.034 1622.04 411.395 1623.63 410.964C1625.21 410.518 1626.91 410.218 1628.71 410.064C1630.72 409.88 1632.35 409.687 1633.58 409.487C1634.81 409.272 1635.7 408.972 1636.25 408.587C1636.82 408.187 1637.11 407.625 1637.11 406.902V406.787C1637.11 405.602 1636.7 404.686 1635.89 404.04C1635.07 403.393 1633.97 403.07 1632.58 403.07C1631.09 403.07 1629.89 403.393 1628.98 404.04C1628.08 404.686 1627.5 405.579 1627.25 406.717L1616.84 406.348C1617.15 404.194 1617.94 402.27 1619.22 400.577C1620.51 398.869 1622.28 397.531 1624.53 396.561C1626.79 395.576 1629.51 395.084 1632.68 395.084C1634.94 395.084 1637.02 395.353 1638.93 395.892C1640.84 396.415 1642.5 397.184 1643.92 398.2C1645.33 399.2 1646.43 400.431 1647.2 401.893C1647.98 403.355 1648.37 405.025 1648.37 406.902V431H1637.76V426.06H1637.48C1636.85 427.261 1636.04 428.276 1635.05 429.107C1634.08 429.938 1632.94 430.561 1631.62 430.977C1630.31 431.392 1628.83 431.6 1627.18 431.6ZM1630.67 424.214C1631.88 424.214 1632.98 423.968 1633.95 423.475C1634.93 422.983 1635.72 422.306 1636.3 421.444C1636.89 420.567 1637.18 419.551 1637.18 418.397V415.027C1636.85 415.196 1636.46 415.35 1636 415.489C1635.55 415.627 1635.06 415.758 1634.52 415.881C1633.98 416.004 1633.43 416.112 1632.86 416.204C1632.29 416.297 1631.75 416.381 1631.22 416.458C1630.16 416.627 1629.25 416.889 1628.5 417.243C1627.76 417.597 1627.19 418.058 1626.79 418.628C1626.41 419.182 1626.21 419.844 1626.21 420.613C1626.21 421.782 1626.63 422.675 1627.46 423.29C1628.31 423.906 1629.38 424.214 1630.67 424.214ZM1671.82 431.669C1668.09 431.669 1664.88 430.9 1662.2 429.361C1659.54 427.822 1657.49 425.683 1656.06 422.944C1654.63 420.19 1653.91 417.004 1653.91 413.388C1653.91 409.757 1654.63 406.571 1656.06 403.832C1657.51 401.078 1659.56 398.931 1662.22 397.392C1664.9 395.853 1668.09 395.084 1671.8 395.084C1675.08 395.084 1677.93 395.676 1680.37 396.861C1682.81 398.046 1684.72 399.723 1686.09 401.893C1687.47 404.047 1688.21 406.579 1688.28 409.487H1677.73C1677.52 407.671 1676.9 406.248 1675.89 405.217C1674.89 404.186 1673.58 403.67 1671.96 403.67C1670.66 403.67 1669.51 404.04 1668.52 404.778C1667.54 405.502 1666.77 406.579 1666.22 408.01C1665.68 409.426 1665.41 411.18 1665.41 413.273C1665.41 415.366 1665.68 417.135 1666.22 418.582C1666.77 420.013 1667.54 421.098 1668.52 421.836C1669.51 422.56 1670.66 422.921 1671.96 422.921C1673.01 422.921 1673.93 422.698 1674.73 422.252C1675.55 421.806 1676.22 421.152 1676.74 420.29C1677.26 419.413 1677.6 418.351 1677.73 417.104H1688.28C1688.17 420.028 1687.44 422.583 1686.09 424.768C1684.75 426.953 1682.87 428.653 1680.43 429.869C1678.02 431.069 1675.15 431.669 1671.82 431.669ZM1704.24 421.698L1704.28 408.241H1705.85L1715.83 395.545H1728.61L1713.79 413.734H1710.82L1704.24 421.698ZM1694.06 431V383.727H1705.35V431H1694.06ZM1716.08 431L1706.8 416.273L1714.23 408.264L1729.12 431H1716.08ZM1747.77 431.669C1744.06 431.669 1740.86 430.938 1738.16 429.477C1735.49 427.999 1733.42 425.899 1731.98 423.175C1730.55 420.436 1729.83 417.181 1729.83 413.411C1729.83 409.749 1730.55 406.548 1732 403.809C1733.45 401.054 1735.49 398.915 1738.12 397.392C1740.75 395.853 1743.85 395.084 1747.42 395.084C1749.94 395.084 1752.25 395.476 1754.34 396.261C1756.44 397.046 1758.25 398.208 1759.77 399.746C1761.29 401.285 1762.48 403.186 1763.32 405.448C1764.17 407.694 1764.59 410.272 1764.59 413.18V415.996H1733.78V409.441H1754.09C1754.07 408.241 1753.79 407.171 1753.24 406.233C1752.68 405.294 1751.92 404.563 1750.95 404.04C1750 403.501 1748.9 403.232 1747.65 403.232C1746.39 403.232 1745.26 403.517 1744.26 404.086C1743.26 404.64 1742.46 405.402 1741.88 406.371C1741.29 407.325 1740.99 408.41 1740.96 409.626V416.297C1740.96 417.743 1741.24 419.013 1741.81 420.105C1742.38 421.182 1743.19 422.021 1744.23 422.621C1745.28 423.221 1746.53 423.521 1747.97 423.521C1748.97 423.521 1749.88 423.383 1750.7 423.106C1751.51 422.829 1752.21 422.421 1752.8 421.882C1753.38 421.344 1753.82 420.682 1754.11 419.897L1764.48 420.197C1764.05 422.521 1763.1 424.545 1761.64 426.268C1760.19 427.976 1758.29 429.307 1755.94 430.261C1753.58 431.2 1750.86 431.669 1747.77 431.669ZM1781.64 410.78V431H1770.36V395.545H1781.09V402.055H1781.48C1782.27 399.885 1783.61 398.185 1785.5 396.953C1787.39 395.707 1789.65 395.084 1792.26 395.084C1794.76 395.084 1796.92 395.645 1798.75 396.769C1800.6 397.877 1802.03 399.431 1803.04 401.431C1804.07 403.417 1804.58 405.74 1804.57 408.402V431H1793.28V410.618C1793.29 408.649 1792.79 407.11 1791.78 406.002C1790.78 404.894 1789.39 404.34 1787.6 404.34C1786.42 404.34 1785.37 404.601 1784.46 405.125C1783.57 405.632 1782.88 406.363 1782.38 407.317C1781.91 408.272 1781.66 409.426 1781.64 410.78ZM1824.5 431.508C1821.89 431.508 1819.51 430.831 1817.37 429.477C1815.23 428.122 1813.52 426.091 1812.25 423.383C1810.97 420.674 1810.33 417.312 1810.33 413.296C1810.33 409.126 1810.99 405.694 1812.32 403.001C1813.64 400.308 1815.37 398.315 1817.51 397.023C1819.66 395.73 1821.98 395.084 1824.46 395.084C1826.32 395.084 1827.91 395.407 1829.23 396.053C1830.56 396.684 1831.65 397.5 1832.51 398.5C1833.37 399.5 1834.03 400.539 1834.47 401.616H1834.71V383.727H1845.99V431H1834.82V425.252H1834.47C1834 426.345 1833.32 427.368 1832.44 428.322C1831.57 429.277 1830.47 430.046 1829.14 430.631C1827.83 431.215 1826.29 431.508 1824.5 431.508ZM1828.43 422.713C1829.8 422.713 1830.97 422.329 1831.94 421.559C1832.91 420.775 1833.65 419.674 1834.17 418.259C1834.7 416.843 1834.96 415.181 1834.96 413.273C1834.96 411.334 1834.7 409.664 1834.17 408.264C1833.67 406.864 1832.92 405.786 1831.94 405.032C1830.97 404.278 1829.8 403.901 1828.43 403.901C1827.03 403.901 1825.84 404.286 1824.87 405.055C1823.9 405.825 1823.16 406.91 1822.66 408.31C1822.16 409.71 1821.92 411.365 1821.92 413.273C1821.92 415.181 1822.17 416.843 1822.68 418.259C1823.19 419.674 1823.92 420.775 1824.87 421.559C1825.84 422.329 1827.03 422.713 1828.43 422.713Z" fill="black"/>
<path d="M2566.23 396H2548.76V348.727H2566.21C2571.02 348.727 2575.17 349.674 2578.65 351.566C2582.14 353.444 2584.84 356.152 2586.73 359.691C2588.62 363.215 2589.57 367.432 2589.57 372.341C2589.57 377.265 2588.62 381.497 2586.73 385.036C2584.85 388.575 2582.17 391.291 2578.67 393.184C2575.18 395.061 2571.03 396 2566.23 396ZM2560.18 386.259H2565.79C2568.44 386.259 2570.68 385.813 2572.51 384.92C2574.36 384.013 2575.75 382.543 2576.69 380.512C2577.64 378.465 2578.12 375.741 2578.12 372.341C2578.12 368.94 2577.64 366.231 2576.69 364.216C2575.73 362.184 2574.33 360.722 2572.46 359.83C2570.62 358.922 2568.34 358.468 2565.63 358.468H2560.18V386.259ZM2606.23 396.6C2603.97 396.6 2601.96 396.223 2600.21 395.469C2598.47 394.7 2597.09 393.546 2596.08 392.007C2595.08 390.453 2594.58 388.506 2594.58 386.167C2594.58 384.197 2594.92 382.535 2595.62 381.181C2596.31 379.827 2597.26 378.727 2598.48 377.88C2599.69 377.034 2601.09 376.395 2602.68 375.964C2604.26 375.518 2605.96 375.218 2607.76 375.064C2609.77 374.88 2611.4 374.687 2612.63 374.487C2613.86 374.272 2614.75 373.972 2615.3 373.587C2615.87 373.187 2616.16 372.625 2616.16 371.902V371.787C2616.16 370.602 2615.75 369.686 2614.94 369.04C2614.12 368.393 2613.02 368.07 2611.63 368.07C2610.14 368.07 2608.94 368.393 2608.03 369.04C2607.13 369.686 2606.55 370.579 2606.3 371.717L2595.89 371.348C2596.2 369.194 2596.99 367.27 2598.27 365.577C2599.56 363.869 2601.33 362.531 2603.58 361.561C2605.84 360.576 2608.56 360.084 2611.73 360.084C2613.99 360.084 2616.07 360.353 2617.98 360.892C2619.89 361.415 2621.55 362.184 2622.97 363.2C2624.38 364.2 2625.48 365.431 2626.25 366.893C2627.03 368.355 2627.42 370.025 2627.42 371.902V396H2616.8V391.06H2616.53C2615.9 392.261 2615.09 393.276 2614.1 394.107C2613.13 394.938 2611.99 395.561 2610.66 395.977C2609.36 396.392 2607.88 396.6 2606.23 396.6ZM2609.72 389.214C2610.93 389.214 2612.03 388.968 2613 388.475C2613.98 387.983 2614.77 387.306 2615.35 386.444C2615.94 385.567 2616.23 384.551 2616.23 383.397V380.027C2615.9 380.196 2615.51 380.35 2615.05 380.489C2614.6 380.627 2614.11 380.758 2613.57 380.881C2613.03 381.004 2612.48 381.112 2611.91 381.204C2611.34 381.297 2610.8 381.381 2610.27 381.458C2609.21 381.627 2608.3 381.889 2607.55 382.243C2606.81 382.597 2606.24 383.058 2605.84 383.628C2605.46 384.182 2605.26 384.844 2605.26 385.613C2605.26 386.782 2605.68 387.675 2606.51 388.29C2607.36 388.906 2608.43 389.214 2609.72 389.214ZM2654.34 360.545V368.855H2631.97V360.545H2654.34ZM2636.66 352.051H2647.94V384.851C2647.94 385.544 2648.05 386.105 2648.27 386.536C2648.5 386.952 2648.83 387.252 2649.26 387.436C2649.69 387.606 2650.21 387.69 2650.81 387.69C2651.24 387.69 2651.69 387.652 2652.17 387.575C2652.66 387.483 2653.03 387.406 2653.27 387.344L2654.98 395.492C2654.44 395.646 2653.68 395.838 2652.7 396.069C2651.73 396.3 2650.57 396.446 2649.21 396.508C2646.57 396.631 2644.3 396.323 2642.4 395.585C2640.53 394.83 2639.09 393.661 2638.09 392.076C2637.1 390.491 2636.62 388.498 2636.66 386.098V352.051ZM2670.09 396.6C2667.83 396.6 2665.82 396.223 2664.07 395.469C2662.33 394.7 2660.95 393.546 2659.93 392.007C2658.93 390.453 2658.43 388.506 2658.43 386.167C2658.43 384.197 2658.78 382.535 2659.47 381.181C2660.17 379.827 2661.12 378.727 2662.33 377.88C2663.55 377.034 2664.95 376.395 2666.54 375.964C2668.12 375.518 2669.81 375.218 2671.61 375.064C2673.63 374.88 2675.25 374.687 2676.48 374.487C2677.72 374.272 2678.61 373.972 2679.16 373.587C2679.73 373.187 2680.02 372.625 2680.02 371.902V371.787C2680.02 370.602 2679.61 369.686 2678.79 369.04C2677.98 368.393 2676.88 368.07 2675.49 368.07C2674 368.07 2672.8 368.393 2671.89 369.04C2670.98 369.686 2670.41 370.579 2670.16 371.717L2659.75 371.348C2660.06 369.194 2660.85 367.27 2662.13 365.577C2663.42 363.869 2665.19 362.531 2667.44 361.561C2669.7 360.576 2672.41 360.084 2675.58 360.084C2677.85 360.084 2679.93 360.353 2681.84 360.892C2683.75 361.415 2685.41 362.184 2686.83 363.2C2688.24 364.2 2689.33 365.431 2690.1 366.893C2690.89 368.355 2691.28 370.025 2691.28 371.902V396H2680.66V391.06H2680.39C2679.75 392.261 2678.95 393.276 2677.96 394.107C2676.99 394.938 2675.85 395.561 2674.52 395.977C2673.21 396.392 2671.74 396.6 2670.09 396.6ZM2673.58 389.214C2674.79 389.214 2675.88 388.968 2676.85 388.475C2677.84 387.983 2678.62 387.306 2679.21 386.444C2679.79 385.567 2680.09 384.551 2680.09 383.397V380.027C2679.76 380.196 2679.37 380.35 2678.91 380.489C2678.46 380.627 2677.97 380.758 2677.43 380.881C2676.89 381.004 2676.34 381.112 2675.77 381.204C2675.2 381.297 2674.65 381.381 2674.13 381.458C2673.07 381.627 2672.16 381.889 2671.41 382.243C2670.67 382.597 2670.1 383.058 2669.7 383.628C2669.31 384.182 2669.12 384.844 2669.12 385.613C2669.12 386.782 2669.54 387.675 2670.37 388.29C2671.21 388.906 2672.28 389.214 2673.58 389.214ZM2698.18 396V348.727H2709.47V366.616H2709.7C2710.16 365.539 2710.82 364.5 2711.66 363.5C2712.52 362.5 2713.62 361.684 2714.94 361.053C2716.28 360.407 2717.88 360.084 2719.74 360.084C2722.2 360.084 2724.5 360.73 2726.64 362.023C2728.8 363.315 2730.54 365.308 2731.86 368.001C2733.18 370.694 2733.84 374.126 2733.84 378.296C2733.84 382.312 2733.21 385.674 2731.93 388.383C2730.67 391.091 2728.96 393.122 2726.8 394.477C2724.66 395.831 2722.29 396.508 2719.67 396.508C2717.89 396.508 2716.34 396.215 2715.03 395.631C2713.72 395.046 2712.62 394.277 2711.73 393.322C2710.85 392.368 2710.18 391.345 2709.7 390.252H2709.35V396H2698.18ZM2709.24 378.273C2709.24 380.181 2709.49 381.843 2710 383.259C2710.52 384.674 2711.27 385.775 2712.24 386.559C2713.22 387.329 2714.4 387.713 2715.77 387.713C2717.16 387.713 2718.33 387.329 2719.3 386.559C2720.27 385.775 2721 384.674 2721.49 383.259C2722 381.843 2722.26 380.181 2722.26 378.273C2722.26 376.365 2722 374.71 2721.49 373.31C2721 371.91 2720.27 370.825 2719.3 370.055C2718.35 369.286 2717.17 368.901 2715.77 368.901C2714.39 368.901 2713.21 369.278 2712.24 370.032C2711.27 370.786 2710.52 371.864 2710 373.264C2709.49 374.664 2709.24 376.334 2709.24 378.273ZM2749.75 396.6C2747.49 396.6 2745.48 396.223 2743.73 395.469C2741.99 394.7 2740.61 393.546 2739.6 392.007C2738.6 390.453 2738.1 388.506 2738.1 386.167C2738.1 384.197 2738.44 382.535 2739.14 381.181C2739.83 379.827 2740.78 378.727 2742 377.88C2743.21 377.034 2744.61 376.395 2746.2 375.964C2747.78 375.518 2749.48 375.218 2751.28 375.064C2753.29 374.88 2754.92 374.687 2756.15 374.487C2757.38 374.272 2758.27 373.972 2758.82 373.587C2759.39 373.187 2759.68 372.625 2759.68 371.902V371.787C2759.68 370.602 2759.27 369.686 2758.46 369.04C2757.64 368.393 2756.54 368.07 2755.15 368.07C2753.66 368.07 2752.46 368.393 2751.55 369.04C2750.65 369.686 2750.07 370.579 2749.82 371.717L2739.41 371.348C2739.72 369.194 2740.51 367.27 2741.79 365.577C2743.08 363.869 2744.85 362.531 2747.1 361.561C2749.36 360.576 2752.08 360.084 2755.25 360.084C2757.51 360.084 2759.59 360.353 2761.5 360.892C2763.41 361.415 2765.07 362.184 2766.49 363.2C2767.9 364.2 2769 365.431 2769.77 366.893C2770.55 368.355 2770.94 370.025 2770.94 371.902V396H2760.33V391.06H2760.05C2759.42 392.261 2758.61 393.276 2757.62 394.107C2756.66 394.938 2755.51 395.561 2754.19 395.977C2752.88 396.392 2751.4 396.6 2749.75 396.6ZM2753.24 389.214C2754.45 389.214 2755.55 388.968 2756.52 388.475C2757.5 387.983 2758.29 387.306 2758.87 386.444C2759.46 385.567 2759.75 384.551 2759.75 383.397V380.027C2759.43 380.196 2759.03 380.35 2758.57 380.489C2758.12 380.627 2757.63 380.758 2757.09 380.881C2756.56 381.004 2756 381.112 2755.43 381.204C2754.86 381.297 2754.32 381.381 2753.79 381.458C2752.73 381.627 2751.82 381.889 2751.07 382.243C2750.33 382.597 2749.76 383.058 2749.36 383.628C2748.98 384.182 2748.78 384.844 2748.78 385.613C2748.78 386.782 2749.2 387.675 2750.03 388.29C2750.88 388.906 2751.95 389.214 2753.24 389.214ZM2808.8 371.371L2798.43 371.648C2798.33 370.909 2798.03 370.255 2797.56 369.686C2797.08 369.101 2796.46 368.647 2795.69 368.324C2794.93 367.986 2794.06 367.816 2793.06 367.816C2791.75 367.816 2790.63 368.078 2789.71 368.601C2788.8 369.124 2788.36 369.832 2788.37 370.725C2788.36 371.417 2788.63 372.017 2789.2 372.525C2789.79 373.033 2790.82 373.441 2792.32 373.749L2799.15 375.041C2802.69 375.718 2805.32 376.842 2807.04 378.411C2808.78 379.981 2809.66 382.058 2809.68 384.643C2809.66 387.075 2808.94 389.191 2807.51 390.991C2806.09 392.792 2804.15 394.192 2801.69 395.192C2799.23 396.177 2796.41 396.669 2793.24 396.669C2788.18 396.669 2784.18 395.631 2781.26 393.553C2778.35 391.46 2776.69 388.66 2776.28 385.151L2787.42 384.874C2787.67 386.167 2788.31 387.152 2789.34 387.829C2790.37 388.506 2791.69 388.844 2793.29 388.844C2794.73 388.844 2795.91 388.575 2796.82 388.037C2797.73 387.498 2798.19 386.782 2798.2 385.89C2798.19 385.09 2797.83 384.451 2797.14 383.974C2796.45 383.482 2795.36 383.097 2793.89 382.82L2787.7 381.643C2784.15 380.996 2781.5 379.804 2779.76 378.065C2778.02 376.311 2777.16 374.079 2777.18 371.371C2777.16 369.001 2777.79 366.978 2779.07 365.3C2780.35 363.608 2782.16 362.315 2784.52 361.423C2786.87 360.53 2789.65 360.084 2792.85 360.084C2797.65 360.084 2801.44 361.092 2804.2 363.108C2806.97 365.108 2808.51 367.863 2808.8 371.371ZM2831.81 396.669C2828.1 396.669 2824.9 395.938 2822.2 394.477C2819.53 392.999 2817.46 390.899 2816.02 388.175C2814.59 385.436 2813.87 382.181 2813.87 378.411C2813.87 374.749 2814.59 371.548 2816.04 368.809C2817.49 366.054 2819.53 363.915 2822.16 362.392C2824.79 360.853 2827.89 360.084 2831.46 360.084C2833.98 360.084 2836.29 360.476 2838.38 361.261C2840.48 362.046 2842.29 363.208 2843.81 364.746C2845.33 366.285 2846.52 368.186 2847.36 370.448C2848.21 372.694 2848.63 375.272 2848.63 378.18V380.996H2817.82V374.441H2838.13C2838.11 373.241 2837.83 372.171 2837.28 371.233C2836.72 370.294 2835.96 369.563 2834.99 369.04C2834.04 368.501 2832.94 368.232 2831.69 368.232C2830.43 368.232 2829.3 368.517 2828.3 369.086C2827.3 369.64 2826.5 370.402 2825.92 371.371C2825.33 372.325 2825.03 373.41 2825 374.626V381.297C2825 382.743 2825.28 384.013 2825.85 385.105C2826.42 386.182 2827.23 387.021 2828.27 387.621C2829.32 388.221 2830.57 388.521 2832.01 388.521C2833.01 388.521 2833.92 388.383 2834.74 388.106C2835.55 387.829 2836.25 387.421 2836.84 386.882C2837.42 386.344 2837.86 385.682 2838.15 384.897L2848.52 385.197C2848.09 387.521 2847.14 389.545 2845.68 391.268C2844.23 392.976 2842.33 394.307 2839.98 395.261C2837.62 396.2 2834.9 396.669 2831.81 396.669Z" fill="black"/>
<path d="M1269 395.535L1229 372.441V418.629L1269 395.535ZM949 395.535V399.535H1233V395.535V391.535H949V395.535Z" fill="#0A8404"/>
<path d="M948.998 470.535L988.998 493.629V447.441L948.998 470.535ZM1269 470.535V466.535H1261V470.535V474.535H1269V470.535ZM1245 470.535V466.535H1229V470.535V474.535H1245V470.535ZM1213 470.535V466.535H1197V470.535V474.535H1213V470.535ZM1181 470.535V466.535H1165V470.535V474.535H1181V470.535ZM1149 470.535V466.535H1133V470.535V474.535H1149V470.535ZM1117 470.535V466.535H1101V470.535V474.535H1117V470.535ZM1085 470.535V466.535L1069 466.535V470.535V474.535L1085 474.535V470.535ZM1053 470.535V466.535H1037V470.535V474.535H1053V470.535ZM1021 470.535V466.535H1005V470.535V474.535H1021V470.535ZM988.999 470.535V466.535H972.999V470.535V474.535H988.999V470.535ZM948.998 470.535L988.998 493.629V447.441L948.998 470.535ZM1269 470.535V466.535H1261V470.535V474.535H1269V470.535ZM1245 470.535V466.535H1229V470.535V474.535H1245V470.535ZM1213 470.535V466.535H1197V470.535V474.535H1213V470.535ZM1181 470.535V466.535H1165V470.535V474.535H1181V470.535ZM1149 470.535V466.535H1133V470.535V474.535H1149V470.535ZM1117 470.535V466.535H1101V470.535V474.535H1117V470.535ZM1085 470.535V466.535L1069 466.535V470.535V474.535L1085 474.535V470.535ZM1053 470.535V466.535H1037V470.535V474.535H1053V470.535ZM1021 470.535V466.535H1005V470.535V474.535H1021V470.535ZM988.999 470.535V466.535H972.999V470.535V474.535H988.999V470.535Z" fill="#0A8404"/>
<path d="M2470 412L2430 388.906V435.094L2470 412ZM2150 412V416H2434V412V408H2150V412Z" fill="#C80000"/>
<path d="M2698 170.5C2760.85 170.5 2817.67 175.641 2858.73 183.924C2879.27 188.069 2895.74 192.977 2907.01 198.352C2912.65 201.042 2916.85 203.788 2919.61 206.51C2922.37 209.227 2923.5 211.725 2923.5 214C2923.5 216.275 2922.37 218.773 2919.61 221.49C2916.85 224.212 2912.65 226.958 2907.01 229.648C2895.74 235.023 2879.27 239.931 2858.73 244.076C2817.67 252.359 2760.85 257.5 2698 257.5C2635.15 257.5 2578.33 252.359 2537.27 244.076C2516.73 239.931 2500.26 235.023 2488.99 229.648C2483.35 226.958 2479.15 224.212 2476.39 221.49C2473.63 218.773 2472.5 216.275 2472.5 214C2472.5 211.725 2473.63 209.227 2476.39 206.51C2479.15 203.788 2483.35 201.042 2488.99 198.352C2500.26 192.977 2516.73 188.069 2537.27 183.924C2578.33 175.641 2635.15 170.5 2698 170.5Z" stroke="black" stroke-width="5"/>
<path d="M2698 559.5C2760.85 559.5 2817.67 564.641 2858.73 572.924C2879.27 577.069 2895.74 581.977 2907.01 587.352C2912.65 590.042 2916.85 592.788 2919.61 595.51C2922.37 598.227 2923.5 600.725 2923.5 603C2923.5 605.275 2922.37 607.773 2919.61 610.49C2916.85 613.212 2912.65 615.958 2907.01 618.648C2895.74 624.023 2879.27 628.931 2858.73 633.076C2817.67 641.359 2760.85 646.5 2698 646.5C2635.15 646.5 2578.33 641.359 2537.27 633.076C2516.73 628.931 2500.26 624.023 2488.99 618.648C2483.35 615.958 2479.15 613.212 2476.39 610.49C2473.63 607.773 2472.5 605.275 2472.5 603C2472.5 600.725 2473.63 598.227 2476.39 595.51C2479.15 592.788 2483.35 590.042 2488.99 587.352C2500.26 581.977 2516.73 577.069 2537.27 572.924C2578.33 564.641 2635.15 559.5 2698 559.5Z" stroke="black" stroke-width="5"/>
<line x1="2472" y1="603.006" x2="2472" y2="215.994" stroke="black" stroke-width="5"/>
<line x1="2923.5" y1="601.012" x2="2923.5" y2="214" stroke="black" stroke-width="5"/>
<path d="M1079.58 333H1071.08L1082.12 300.273H1092.65L1103.7 333H1095.19L1087.51 308.518H1087.25L1079.58 333ZM1078.45 320.12H1096.22V326.129H1078.45V320.12ZM1107.22 333V300.273H1120.74C1123.19 300.273 1125.3 300.752 1127.08 301.711C1128.87 302.659 1130.25 303.985 1131.22 305.69C1132.19 307.384 1132.68 309.355 1132.68 311.603C1132.68 313.861 1132.18 315.837 1131.19 317.531C1130.21 319.214 1128.81 320.52 1126.99 321.446C1125.17 322.373 1123 322.837 1120.5 322.837H1112.16V316.604H1119.03C1120.22 316.604 1121.22 316.397 1122.02 315.981C1122.83 315.566 1123.44 314.985 1123.85 314.239C1124.27 313.483 1124.48 312.604 1124.48 311.603C1124.48 310.591 1124.27 309.717 1123.85 308.982C1123.44 308.236 1122.83 307.661 1122.02 307.256C1121.21 306.851 1120.21 306.649 1119.03 306.649H1115.13V333H1107.22ZM1144.49 300.273V333H1136.58V300.273H1144.49Z" fill="black"/>
<path d="M2174.47 310.085C2174.37 308.913 2173.89 308.002 2173.05 307.352C2172.22 306.691 2171.03 306.361 2169.49 306.361C2168.47 306.361 2167.61 306.494 2166.93 306.761C2166.25 307.027 2165.74 307.395 2165.4 307.863C2165.06 308.321 2164.88 308.849 2164.87 309.445C2164.85 309.935 2164.94 310.367 2165.16 310.74C2165.38 311.113 2165.7 311.443 2166.12 311.73C2166.54 312.007 2167.05 312.252 2167.65 312.466C2168.25 312.679 2168.92 312.865 2169.66 313.025L2172.48 313.664C2174.1 314.016 2175.52 314.484 2176.76 315.07C2178.01 315.656 2179.05 316.354 2179.89 317.164C2180.74 317.973 2181.39 318.906 2181.82 319.96C2182.26 321.015 2182.49 322.197 2182.5 323.508C2182.49 325.575 2181.96 327.348 2180.93 328.829C2179.9 330.31 2178.41 331.445 2176.47 332.233C2174.54 333.021 2172.22 333.415 2169.49 333.415C2166.75 333.415 2164.36 333.005 2162.33 332.185C2160.29 331.365 2158.71 330.118 2157.58 328.446C2156.45 326.773 2155.87 324.658 2155.84 322.102H2163.42C2163.48 323.156 2163.76 324.035 2164.26 324.738C2164.76 325.441 2165.45 325.974 2166.32 326.336C2167.21 326.699 2168.23 326.88 2169.39 326.88C2170.46 326.88 2171.36 326.736 2172.11 326.448C2172.87 326.161 2173.45 325.761 2173.85 325.25C2174.26 324.738 2174.46 324.152 2174.47 323.492C2174.46 322.874 2174.27 322.347 2173.9 321.91C2173.53 321.462 2172.95 321.079 2172.17 320.759C2171.41 320.429 2170.43 320.125 2169.23 319.848L2165.81 319.049C2162.98 318.4 2160.75 317.35 2159.12 315.901C2157.49 314.442 2156.68 312.471 2156.69 309.989C2156.68 307.964 2157.22 306.191 2158.32 304.667C2159.42 303.144 2160.93 301.956 2162.87 301.104C2164.81 300.251 2167.02 299.825 2169.5 299.825C2172.04 299.825 2174.24 300.257 2176.1 301.12C2177.98 301.972 2179.43 303.17 2180.47 304.715C2181.5 306.26 2182.03 308.05 2182.05 310.085H2174.47ZM2199 321.239H2205.4L2208.11 324.706L2211.68 328.797L2217.16 335.557H2210L2206.16 330.971L2203.89 327.711L2199 321.239ZM2217.38 316.636C2217.38 320.237 2216.69 323.289 2215.3 325.793C2213.92 328.297 2212.04 330.198 2209.68 331.498C2207.32 332.798 2204.68 333.447 2201.75 333.447C2198.81 333.447 2196.16 332.792 2193.81 331.482C2191.46 330.172 2189.59 328.27 2188.2 325.777C2186.83 323.273 2186.14 320.227 2186.14 316.636C2186.14 313.036 2186.83 309.983 2188.2 307.48C2189.59 304.976 2191.46 303.075 2193.81 301.775C2196.16 300.475 2198.81 299.825 2201.75 299.825C2204.68 299.825 2207.32 300.475 2209.68 301.775C2212.04 303.075 2213.92 304.976 2215.3 307.48C2216.69 309.983 2217.38 313.036 2217.38 316.636ZM2209.29 316.636C2209.29 314.506 2208.99 312.705 2208.38 311.235C2207.79 309.765 2206.92 308.652 2205.8 307.895C2204.68 307.139 2203.33 306.761 2201.75 306.761C2200.19 306.761 2198.84 307.139 2197.71 307.895C2196.58 308.652 2195.71 309.765 2195.1 311.235C2194.51 312.705 2194.21 314.506 2194.21 316.636C2194.21 318.767 2194.51 320.567 2195.1 322.038C2195.71 323.508 2196.58 324.621 2197.71 325.377C2198.84 326.134 2200.19 326.512 2201.75 326.512C2203.33 326.512 2204.68 326.134 2205.8 325.377C2206.92 324.621 2207.79 323.508 2208.38 322.038C2208.99 320.567 2209.29 318.767 2209.29 316.636ZM2222.04 333V300.273H2229.95V326.576H2243.57V333H2222.04ZM2262.62 313.632V319.641H2247.48V313.632H2262.62ZM2266.97 325.809H2274.42C2274.44 326.533 2274.76 327.109 2275.36 327.535C2275.98 327.961 2276.78 328.174 2277.75 328.174C2278.73 328.174 2279.54 327.94 2280.17 327.471C2280.82 326.991 2281.15 326.331 2281.15 325.489C2281.15 324.978 2281.02 324.531 2280.75 324.147C2280.49 323.753 2280.13 323.444 2279.66 323.22C2279.21 322.996 2278.67 322.885 2278.07 322.885H2274.77V318.075H2278.07C2278.97 318.075 2279.68 317.862 2280.21 317.435C2280.73 317.009 2280.99 316.471 2280.99 315.821C2280.99 315.086 2280.72 314.49 2280.19 314.032C2279.67 313.574 2278.97 313.344 2278.1 313.344C2277.23 313.344 2276.52 313.542 2275.96 313.936C2275.39 314.33 2275.1 314.841 2275.09 315.47H2267.65C2267.66 313.946 2268.11 312.641 2269 311.555C2269.91 310.457 2271.12 309.616 2272.65 309.03C2274.18 308.433 2275.89 308.135 2277.76 308.135C2279.86 308.135 2281.67 308.412 2283.18 308.966C2284.7 309.509 2285.87 310.298 2286.68 311.331C2287.49 312.354 2287.89 313.6 2287.89 315.07C2287.89 316.349 2287.45 317.43 2286.57 318.314C2285.69 319.199 2284.43 319.827 2282.78 320.2V320.456C2283.81 320.509 2284.76 320.77 2285.62 321.239C2286.49 321.697 2287.18 322.347 2287.72 323.188C2288.25 324.019 2288.52 325.026 2288.52 326.208C2288.52 327.732 2288.05 329.037 2287.13 330.124C2286.2 331.2 2284.93 332.025 2283.31 332.6C2281.7 333.176 2279.85 333.463 2277.76 333.463C2275.73 333.463 2273.9 333.181 2272.3 332.616C2270.7 332.041 2269.43 331.184 2268.48 330.044C2267.53 328.904 2267.03 327.492 2266.97 325.809ZM2299.27 333.415C2297.71 333.415 2296.32 333.154 2295.1 332.632C2293.9 332.1 2292.95 331.301 2292.24 330.235C2291.55 329.159 2291.2 327.812 2291.2 326.192C2291.2 324.829 2291.44 323.678 2291.92 322.741C2292.4 321.803 2293.06 321.042 2293.91 320.456C2294.75 319.87 2295.72 319.428 2296.81 319.129C2297.91 318.82 2299.08 318.613 2300.33 318.506C2301.73 318.378 2302.85 318.245 2303.7 318.107C2304.55 317.957 2305.17 317.75 2305.55 317.483C2305.95 317.206 2306.15 316.817 2306.15 316.317V316.237C2306.15 315.417 2305.86 314.783 2305.3 314.335C2304.73 313.888 2303.97 313.664 2303.01 313.664C2301.98 313.664 2301.15 313.888 2300.52 314.335C2299.89 314.783 2299.49 315.401 2299.32 316.189L2292.12 315.933C2292.33 314.442 2292.88 313.11 2293.76 311.938C2294.66 310.756 2295.88 309.829 2297.44 309.158C2299 308.476 2300.88 308.135 2303.08 308.135C2304.64 308.135 2306.09 308.321 2307.41 308.694C2308.73 309.056 2309.88 309.589 2310.86 310.292C2311.84 310.985 2312.6 311.837 2313.13 312.849C2313.67 313.861 2313.94 315.017 2313.94 316.317V333H2306.59V329.58H2306.4C2305.97 330.411 2305.41 331.114 2304.72 331.69C2304.05 332.265 2303.26 332.696 2302.34 332.984C2301.44 333.272 2300.41 333.415 2299.27 333.415ZM2301.69 328.302C2302.53 328.302 2303.29 328.131 2303.96 327.79C2304.64 327.45 2305.18 326.981 2305.59 326.384C2305.99 325.777 2306.19 325.074 2306.19 324.275V321.942C2305.97 322.059 2305.7 322.165 2305.38 322.261C2305.07 322.357 2304.73 322.448 2304.36 322.533C2303.98 322.618 2303.6 322.693 2303.21 322.757C2302.81 322.821 2302.43 322.879 2302.07 322.933C2301.34 323.05 2300.71 323.231 2300.19 323.476C2299.67 323.721 2299.28 324.04 2299 324.435C2298.74 324.818 2298.6 325.276 2298.6 325.809C2298.6 326.619 2298.89 327.237 2299.47 327.663C2300.05 328.089 2300.79 328.302 2301.69 328.302ZM2318.72 333V308.455H2340.89V333H2333.49V314.431H2326.03V333H2318.72ZM2345.84 342.205V308.455H2353.57V312.657H2353.81C2354.13 311.912 2354.58 311.192 2355.17 310.5C2355.77 309.808 2356.52 309.243 2357.44 308.806C2358.37 308.359 2359.47 308.135 2360.76 308.135C2362.47 308.135 2364.06 308.582 2365.54 309.477C2367.03 310.372 2368.24 311.752 2369.15 313.616C2370.07 315.48 2370.53 317.856 2370.53 320.743C2370.53 323.524 2370.08 325.852 2369.2 327.727C2368.33 329.602 2367.14 331.008 2365.65 331.945C2364.17 332.883 2362.53 333.352 2360.71 333.352C2359.48 333.352 2358.41 333.149 2357.5 332.744C2356.6 332.339 2355.84 331.807 2355.22 331.146C2354.61 330.486 2354.14 329.777 2353.81 329.021H2353.65V342.205H2345.84ZM2353.49 320.727C2353.49 322.048 2353.67 323.199 2354.02 324.179C2354.38 325.159 2354.9 325.921 2355.57 326.464C2356.25 326.997 2357.07 327.263 2358.01 327.263C2358.97 327.263 2359.79 326.997 2360.46 326.464C2361.13 325.921 2361.64 325.159 2361.98 324.179C2362.33 323.199 2362.5 322.048 2362.5 320.727C2362.5 319.406 2362.33 318.261 2361.98 317.292C2361.64 316.322 2361.13 315.571 2360.46 315.038C2359.8 314.506 2358.98 314.239 2358.01 314.239C2357.05 314.239 2356.24 314.5 2355.57 315.022C2354.9 315.544 2354.38 316.29 2354.02 317.26C2353.67 318.229 2353.49 319.385 2353.49 320.727ZM2386.08 333.463C2383.5 333.463 2381.28 332.936 2379.43 331.881C2377.59 330.816 2376.17 329.335 2375.16 327.439C2374.17 325.532 2373.68 323.321 2373.68 320.807C2373.68 318.282 2374.17 316.072 2375.16 314.175C2376.17 312.268 2377.59 310.788 2379.43 309.733C2381.28 308.668 2383.5 308.135 2386.08 308.135C2388.66 308.135 2390.87 308.668 2392.71 309.733C2394.56 310.788 2395.99 312.268 2396.98 314.175C2397.98 316.072 2398.48 318.282 2398.48 320.807C2398.48 323.321 2397.98 325.532 2396.98 327.439C2395.99 329.335 2394.56 330.816 2392.71 331.881C2390.87 332.936 2388.66 333.463 2386.08 333.463ZM2386.13 327.567C2387.06 327.567 2387.86 327.279 2388.51 326.704C2389.16 326.129 2389.65 325.33 2389.99 324.307C2390.35 323.284 2390.52 322.102 2390.52 320.759C2390.52 319.396 2390.35 318.202 2389.99 317.18C2389.65 316.157 2389.16 315.358 2388.51 314.783C2387.86 314.207 2387.06 313.92 2386.13 313.92C2385.16 313.92 2384.34 314.207 2383.67 314.783C2383.01 315.358 2382.5 316.157 2382.15 317.18C2381.81 318.202 2381.64 319.396 2381.64 320.759C2381.64 322.102 2381.81 323.284 2382.15 324.307C2382.5 325.33 2383.01 326.129 2383.67 326.704C2384.34 327.279 2385.16 327.567 2386.13 327.567ZM2413.94 333.463C2411.35 333.463 2409.13 332.931 2407.28 331.865C2405.43 330.8 2404.02 329.319 2403.03 327.423C2402.03 325.516 2401.54 323.311 2401.54 320.807C2401.54 318.293 2402.03 316.088 2403.03 314.191C2404.03 312.284 2405.45 310.798 2407.29 309.733C2409.15 308.668 2411.36 308.135 2413.92 308.135C2416.19 308.135 2418.17 308.545 2419.85 309.365C2421.55 310.186 2422.87 311.347 2423.82 312.849C2424.77 314.341 2425.28 316.093 2425.33 318.107H2418.03C2417.88 316.849 2417.46 315.864 2416.75 315.15C2416.06 314.436 2415.15 314.08 2414.04 314.08C2413.13 314.08 2412.34 314.335 2411.65 314.847C2410.97 315.347 2410.44 316.093 2410.06 317.084C2409.68 318.064 2409.5 319.278 2409.5 320.727C2409.5 322.176 2409.68 323.401 2410.06 324.403C2410.44 325.393 2410.97 326.145 2411.65 326.656C2412.34 327.157 2413.13 327.407 2414.04 327.407C2414.76 327.407 2415.4 327.252 2415.95 326.944C2416.52 326.635 2416.98 326.182 2417.34 325.585C2417.71 324.978 2417.94 324.243 2418.03 323.38H2425.33C2425.26 325.404 2424.75 327.173 2423.82 328.685C2422.89 330.198 2421.58 331.375 2419.9 332.217C2418.23 333.048 2416.24 333.463 2413.94 333.463ZM2433.92 315.55H2441.37C2444.74 315.55 2447.39 316.343 2449.31 317.931C2451.23 319.507 2452.19 321.649 2452.2 324.355C2452.19 326.113 2451.75 327.641 2450.87 328.941C2450.01 330.23 2448.77 331.232 2447.15 331.945C2445.54 332.648 2443.61 333 2441.37 333H2429.33V308.455H2436.73V327.023H2441.37C2442.39 327.023 2443.23 326.773 2443.89 326.272C2444.55 325.772 2444.89 325.127 2444.9 324.339C2444.89 323.508 2444.55 322.831 2443.89 322.309C2443.23 321.787 2442.39 321.526 2441.37 321.526H2433.92V315.55ZM2454.41 333V308.455H2462.22V333H2454.41Z" fill="black"/>
</svg>
